<svg xmlns="http://www.w3.org/2000/svg" xmlns:xlink="http://www.w3.org/1999/xlink" width="300" zoomAndPan="magnify" viewBox="0 0 224.87999 74.999997" height="100" preserveAspectRatio="xMidYMid meet" version="1.0"><defs><clipPath id="029afa8e0e"><path d="M 0 0.0195312 L 224.761719 0.0195312 L 224.761719 46 L 0 46 Z M 0 0.0195312 " clip-rule="nonzero"/></clipPath><clipPath id="9c8c2084f2"><path d="M 0 0.0195312 L 224.761719 0.0195312 L 224.761719 45.863281 L 0 45.863281 Z M 0 0.0195312 " clip-rule="nonzero"/></clipPath></defs><g clip-path="url(#029afa8e0e)"><path fill="#ecb11f" d="M -2.554688 45.65625 L -2.554688 -23.230469 L 112.863281 -23.230469 L 112.863281 -22.90625 L 271.042969 -22.90625 L 271.042969 -4.414062 C 267.304688 -4.414062 263.242188 -4.355469 259.019531 -4.414062 C 206.082031 -5.160156 180.664062 45.511719 112.863281 45.65625 Z M -2.554688 45.65625 " fill-opacity="1" fill-rule="nonzero"/></g><g clip-path="url(#9c8c2084f2)"><path fill="#007e7a" d="M -6.5 45.484375 L -6.5 -17.472656 L 99.140625 -17.472656 L 99.140625 -17.179688 L 243.921875 -17.179688 L 243.921875 -0.277344 C 240.5 -0.277344 236.785156 -0.222656 232.917969 -0.277344 C 184.460938 -0.957031 161.199219 45.351562 99.140625 45.484375 Z M -6.5 45.484375 " fill-opacity="1" fill-rule="nonzero"/></g></svg>