<svg xmlns="http://www.w3.org/2000/svg" xmlns:xlink="http://www.w3.org/1999/xlink" width="100" zoomAndPan="magnify" viewBox="0 0 75 74.999997" height="100" preserveAspectRatio="xMidYMid meet" version="1.0"><defs><filter x="0%" y="0%" width="100%" height="100%" id="c3db5fdca6"><feColorMatrix values="0 0 0 0 1 0 0 0 0 1 0 0 0 0 1 0 0 0 1 0" color-interpolation-filters="sRGB"/></filter><g/><mask id="eabe1d98ee"><g filter="url(#c3db5fdca6)"><rect x="-7.5" width="90" fill="#000000" y="-7.5" height="89.999996" fill-opacity="0.25"/></g></mask><clipPath id="0b50166f67"><path d="M 67.390625 0.53125 L 67.507812 0.53125 L 67.507812 67.324219 L 67.390625 67.324219 Z M 0.597656 0.53125 L 0.714844 0.53125 L 0.714844 67.324219 L 0.597656 67.324219 Z M 22.863281 0.53125 L 22.980469 0.53125 L 22.980469 67.324219 L 22.863281 67.324219 Z M 45.128906 0.53125 L 45.246094 0.53125 L 45.246094 67.324219 L 45.128906 67.324219 Z M 45.128906 0.53125 " clip-rule="nonzero"/></clipPath><clipPath id="c7b4d9ed2d"><rect x="0" width="68" y="0" height="68"/></clipPath><clipPath id="c2e5b51587"><path d="M 6.65625 1.476562 L 73.449219 1.476562 L 73.449219 1.589844 L 6.65625 1.589844 Z M 6.65625 1.476562 " clip-rule="nonzero"/></clipPath><mask id="d553302cbd"><g filter="url(#c3db5fdca6)"><rect x="-7.5" width="90" fill="#000000" y="-7.5" height="89.999996" fill-opacity="0.25"/></g></mask><clipPath id="19a977d556"><path d="M 0.65625 0.476562 L 67.449219 0.476562 L 67.449219 0.589844 L 0.65625 0.589844 Z M 0.65625 0.476562 " clip-rule="nonzero"/></clipPath><clipPath id="e766d6f8b1"><rect x="0" width="68" y="0" height="1"/></clipPath><clipPath id="f827fe92c6"><path d="M 6.65625 14.832031 L 73.449219 14.832031 L 73.449219 14.949219 L 6.65625 14.949219 Z M 6.65625 14.832031 " clip-rule="nonzero"/></clipPath><mask id="9c94aa7264"><g filter="url(#c3db5fdca6)"><rect x="-7.5" width="90" fill="#000000" y="-7.5" height="89.999996" fill-opacity="0.25"/></g></mask><clipPath id="511ec086ea"><path d="M 0.65625 0.832031 L 67.449219 0.832031 L 67.449219 0.949219 L 0.65625 0.949219 Z M 0.65625 0.832031 " clip-rule="nonzero"/></clipPath><clipPath id="006941e014"><rect x="0" width="68" y="0" height="1"/></clipPath><clipPath id="ff6d77d578"><path d="M 6.65625 28.191406 L 73.449219 28.191406 L 73.449219 28.308594 L 6.65625 28.308594 Z M 6.65625 28.191406 " clip-rule="nonzero"/></clipPath><mask id="1b87a15cd6"><g filter="url(#c3db5fdca6)"><rect x="-7.5" width="90" fill="#000000" y="-7.5" height="89.999996" fill-opacity="0.25"/></g></mask><clipPath id="3c9be11286"><path d="M 0.65625 0.191406 L 67.449219 0.191406 L 67.449219 0.308594 L 0.65625 0.308594 Z M 0.65625 0.191406 " clip-rule="nonzero"/></clipPath><clipPath id="50eb4c8b73"><rect x="0" width="68" y="0" height="1"/></clipPath><clipPath id="f3e3d2f776"><path d="M 6.65625 41.550781 L 73.449219 41.550781 L 73.449219 41.667969 L 6.65625 41.667969 Z M 6.65625 41.550781 " clip-rule="nonzero"/></clipPath><mask id="af5079a2f0"><g filter="url(#c3db5fdca6)"><rect x="-7.5" width="90" fill="#000000" y="-7.5" height="89.999996" fill-opacity="0.25"/></g></mask><clipPath id="c92b4addd7"><path d="M 0.65625 0.550781 L 67.449219 0.550781 L 67.449219 0.667969 L 0.65625 0.667969 Z M 0.65625 0.550781 " clip-rule="nonzero"/></clipPath><clipPath id="7f61981bfb"><rect x="0" width="68" y="0" height="1"/></clipPath><clipPath id="fd787ab47e"><path d="M 6.65625 54.910156 L 73.449219 54.910156 L 73.449219 55.023438 L 6.65625 55.023438 Z M 6.65625 54.910156 " clip-rule="nonzero"/></clipPath><mask id="dc257c4b59"><g filter="url(#c3db5fdca6)"><rect x="-7.5" width="90" fill="#000000" y="-7.5" height="89.999996" fill-opacity="0.25"/></g></mask><clipPath id="b1204302d0"><path d="M 0.65625 0.910156 L 67.449219 0.910156 L 67.449219 1.023438 L 0.65625 1.023438 Z M 0.65625 0.910156 " clip-rule="nonzero"/></clipPath><clipPath id="03da1ddba4"><rect x="0" width="68" y="0" height="2"/></clipPath><clipPath id="6c15e7c5ed"><path d="M 6.65625 68.269531 L 73.449219 68.269531 L 73.449219 68.382812 L 6.65625 68.382812 Z M 6.65625 68.269531 " clip-rule="nonzero"/></clipPath><mask id="131a07af60"><g filter="url(#c3db5fdca6)"><rect x="-7.5" width="90" fill="#000000" y="-7.5" height="89.999996" fill-opacity="0.6"/></g></mask><clipPath id="b1309083ee"><path d="M 0.65625 0.269531 L 67.449219 0.269531 L 67.449219 0.382812 L 0.65625 0.382812 Z M 0.65625 0.269531 " clip-rule="nonzero"/></clipPath><clipPath id="47b7880d55"><rect x="0" width="68" y="0" height="1"/></clipPath><clipPath id="677d1331b3"><path d="M 12.640625 56.898438 L 14.148438 56.898438 L 14.148438 58.402344 L 12.640625 58.402344 Z M 12.640625 56.898438 " clip-rule="nonzero"/></clipPath><clipPath id="198a69e274"><path d="M 14.03125 57.640625 C 14.03125 57.253906 13.722656 56.941406 13.335938 56.941406 C 12.953125 56.941406 12.640625 57.253906 12.640625 57.640625 C 12.640625 58.023438 12.953125 58.335938 13.335938 58.335938 C 13.722656 58.335938 14.03125 58.023438 14.03125 57.640625 Z M 14.03125 57.640625 " clip-rule="nonzero"/></clipPath><clipPath id="ae7e0b75ec"><path d="M 28.167969 44.042969 L 29.671875 44.042969 L 29.671875 45.546875 L 28.167969 45.546875 Z M 28.167969 44.042969 " clip-rule="nonzero"/></clipPath><clipPath id="dc860f6d83"><path d="M 29.617188 44.816406 C 29.617188 44.429688 29.304688 44.117188 28.921875 44.117188 C 28.539062 44.117188 28.226562 44.429688 28.226562 44.816406 C 28.226562 45.199219 28.539062 45.511719 28.921875 45.511719 C 29.304688 45.511719 29.617188 45.199219 29.617188 44.816406 Z M 29.617188 44.816406 " clip-rule="nonzero"/></clipPath><clipPath id="9bd7b22b12"><path d="M 30.367188 43 L 31.875 43 L 31.875 44.507812 L 30.367188 44.507812 Z M 30.367188 43 " clip-rule="nonzero"/></clipPath><clipPath id="48532f970a"><path d="M 31.84375 43.746094 C 31.84375 43.363281 31.53125 43.050781 31.148438 43.050781 C 30.765625 43.050781 30.453125 43.363281 30.453125 43.746094 C 30.453125 44.128906 30.765625 44.441406 31.148438 44.441406 C 31.53125 44.441406 31.84375 44.128906 31.84375 43.746094 Z M 31.84375 43.746094 " clip-rule="nonzero"/></clipPath><clipPath id="9e05f7452e"><path d="M 37.085938 27.480469 L 38.59375 27.480469 L 38.59375 28.988281 L 37.085938 28.988281 Z M 37.085938 27.480469 " clip-rule="nonzero"/></clipPath><clipPath id="3e9ac0cf23"><path d="M 38.523438 28.25 C 38.523438 27.867188 38.210938 27.554688 37.828125 27.554688 C 37.441406 27.554688 37.132812 27.867188 37.132812 28.25 C 37.132812 28.632812 37.441406 28.945312 37.828125 28.945312 C 38.210938 28.945312 38.523438 28.632812 38.523438 28.25 Z M 38.523438 28.25 " clip-rule="nonzero"/></clipPath><clipPath id="11a88d12b6"><path d="M 52.613281 42.421875 L 54.117188 42.421875 L 54.117188 43.925781 L 52.613281 43.925781 Z M 52.613281 42.421875 " clip-rule="nonzero"/></clipPath><clipPath id="d873dc709f"><path d="M 54.109375 43.210938 C 54.109375 42.828125 53.796875 42.515625 53.414062 42.515625 C 53.027344 42.515625 52.71875 42.828125 52.71875 43.210938 C 52.71875 43.597656 53.027344 43.90625 53.414062 43.90625 C 53.796875 43.90625 54.109375 43.597656 54.109375 43.210938 Z M 54.109375 43.210938 " clip-rule="nonzero"/></clipPath><clipPath id="bc734ab2d7"><path d="M 63.734375 40.800781 L 65.242188 40.800781 L 65.242188 42.304688 L 63.734375 42.304688 Z M 63.734375 40.800781 " clip-rule="nonzero"/></clipPath><clipPath id="953cfcf7b6"><path d="M 65.242188 41.609375 C 65.242188 41.222656 64.929688 40.914062 64.542969 40.914062 C 64.160156 40.914062 63.847656 41.222656 63.847656 41.609375 C 63.847656 41.992188 64.160156 42.304688 64.542969 42.304688 C 64.929688 42.304688 65.242188 41.992188 65.242188 41.609375 Z M 65.242188 41.609375 " clip-rule="nonzero"/></clipPath><clipPath id="f85e67e48f"><path d="M 12.640625 64.308594 L 14.148438 64.308594 L 14.148438 65.816406 L 12.640625 65.816406 Z M 12.640625 64.308594 " clip-rule="nonzero"/></clipPath><clipPath id="ccf3c2a1a6"><path d="M 14.03125 65.121094 C 14.03125 64.734375 13.722656 64.425781 13.335938 64.425781 C 12.953125 64.425781 12.640625 64.734375 12.640625 65.121094 C 12.640625 65.503906 12.953125 65.816406 13.335938 65.816406 C 13.722656 65.816406 14.03125 65.503906 14.03125 65.121094 Z M 14.03125 65.121094 " clip-rule="nonzero"/></clipPath><clipPath id="0681fe9d55"><path d="M 28.167969 63.613281 L 29.671875 63.613281 L 29.671875 65.121094 L 28.167969 65.121094 Z M 28.167969 63.613281 " clip-rule="nonzero"/></clipPath><clipPath id="3784d969e4"><path d="M 29.617188 64.316406 C 29.617188 63.933594 29.304688 63.621094 28.921875 63.621094 C 28.539062 63.621094 28.226562 63.933594 28.226562 64.316406 C 28.226562 64.703125 28.539062 65.015625 28.921875 65.015625 C 29.304688 65.015625 29.617188 64.703125 29.617188 64.316406 Z M 29.617188 64.316406 " clip-rule="nonzero"/></clipPath><clipPath id="1b5d7c5a1f"><path d="M 30.367188 62.804688 L 31.875 62.804688 L 31.875 64.308594 L 30.367188 64.308594 Z M 30.367188 62.804688 " clip-rule="nonzero"/></clipPath><clipPath id="9812ad9bbd"><path d="M 31.84375 63.515625 C 31.84375 63.132812 31.53125 62.820312 31.148438 62.820312 C 30.765625 62.820312 30.453125 63.132812 30.453125 63.515625 C 30.453125 63.902344 30.765625 64.210938 31.148438 64.210938 C 31.53125 64.210938 31.84375 63.902344 31.84375 63.515625 Z M 31.84375 63.515625 " clip-rule="nonzero"/></clipPath><clipPath id="f5d08acae7"><path d="M 37.085938 56.898438 L 38.59375 56.898438 L 38.59375 58.402344 L 37.085938 58.402344 Z M 37.085938 56.898438 " clip-rule="nonzero"/></clipPath><clipPath id="66e18b595f"><path d="M 38.523438 57.640625 C 38.523438 57.253906 38.210938 56.941406 37.828125 56.941406 C 37.441406 56.941406 37.132812 57.253906 37.132812 57.640625 C 37.132812 58.023438 37.441406 58.335938 37.828125 58.335938 C 38.210938 58.335938 38.523438 58.023438 38.523438 57.640625 Z M 38.523438 57.640625 " clip-rule="nonzero"/></clipPath><clipPath id="40fa85eb35"><path d="M 52.613281 26.671875 L 54.117188 26.671875 L 54.117188 28.175781 L 52.613281 28.175781 Z M 52.613281 26.671875 " clip-rule="nonzero"/></clipPath><clipPath id="27596c7a2a"><path d="M 54.109375 27.449219 C 54.109375 27.0625 53.796875 26.753906 53.414062 26.753906 C 53.027344 26.753906 52.71875 27.0625 52.71875 27.449219 C 52.71875 27.832031 53.027344 28.144531 53.414062 28.144531 C 53.796875 28.144531 54.109375 27.832031 54.109375 27.449219 Z M 54.109375 27.449219 " clip-rule="nonzero"/></clipPath><clipPath id="fc7d3cfec7"><path d="M 63.734375 3.507812 L 65.242188 3.507812 L 65.242188 5 L 63.734375 5 Z M 63.734375 3.507812 " clip-rule="nonzero"/></clipPath><clipPath id="b83a1ff489"><path d="M 65.242188 4.203125 C 65.242188 3.820312 64.929688 3.507812 64.542969 3.507812 C 64.160156 3.507812 63.847656 3.820312 63.847656 4.203125 C 63.847656 4.589844 64.160156 4.902344 64.542969 4.902344 C 64.929688 4.902344 65.242188 4.589844 65.242188 4.203125 Z M 65.242188 4.203125 " clip-rule="nonzero"/></clipPath></defs><g mask="url(#eabe1d98ee)"><g transform="matrix(1, 0, 0, 1, 6, 1)"><g clip-path="url(#c7b4d9ed2d)"><g clip-path="url(#0b50166f67)"><path fill="#007e7a" d="M 0.597656 0.53125 L 67.507812 0.53125 L 67.507812 67.324219 L 0.597656 67.324219 Z M 0.597656 0.53125 " fill-opacity="1" fill-rule="nonzero"/></g></g></g></g><g fill="#007e7a" fill-opacity="1"><g transform="translate(5.882795, 72.166514)"><g><path d="M 1.453125 -0.9375 C 1.453125 -0.601562 1.394531 -0.359375 1.28125 -0.203125 C 1.175781 -0.046875 1.007812 0.03125 0.78125 0.03125 C 0.550781 0.03125 0.378906 -0.046875 0.265625 -0.203125 C 0.148438 -0.367188 0.09375 -0.613281 0.09375 -0.9375 C 0.09375 -1.269531 0.144531 -1.515625 0.25 -1.671875 C 0.363281 -1.828125 0.539062 -1.90625 0.78125 -1.90625 C 1 -1.90625 1.164062 -1.820312 1.28125 -1.65625 C 1.394531 -1.5 1.453125 -1.257812 1.453125 -0.9375 Z M 0.59375 -0.9375 C 0.59375 -0.726562 0.601562 -0.582031 0.625 -0.5 C 0.65625 -0.414062 0.707031 -0.375 0.78125 -0.375 C 0.84375 -0.375 0.882812 -0.414062 0.90625 -0.5 C 0.9375 -0.582031 0.953125 -0.726562 0.953125 -0.9375 C 0.953125 -1.144531 0.9375 -1.289062 0.90625 -1.375 C 0.882812 -1.457031 0.84375 -1.5 0.78125 -1.5 C 0.707031 -1.5 0.65625 -1.457031 0.625 -1.375 C 0.601562 -1.300781 0.59375 -1.15625 0.59375 -0.9375 Z M 0.59375 -0.9375 "/></g></g></g><g fill="#007e7a" fill-opacity="1"><g transform="translate(27.372348, 72.166514)"><g><path d="M 1.21875 0 L 0.703125 0 L 0.703125 -1 C 0.703125 -1.125 0.703125 -1.234375 0.703125 -1.328125 C 0.671875 -1.285156 0.632812 -1.242188 0.59375 -1.203125 L 0.375 -1.03125 L 0.109375 -1.359375 L 0.75 -1.890625 L 1.21875 -1.890625 Z M 1.21875 0 "/></g></g></g><g fill="#007e7a" fill-opacity="1"><g transform="translate(28.921288, 72.166514)"><g><path d="M 1.453125 -0.9375 C 1.453125 -0.601562 1.394531 -0.359375 1.28125 -0.203125 C 1.175781 -0.046875 1.007812 0.03125 0.78125 0.03125 C 0.550781 0.03125 0.378906 -0.046875 0.265625 -0.203125 C 0.148438 -0.367188 0.09375 -0.613281 0.09375 -0.9375 C 0.09375 -1.269531 0.144531 -1.515625 0.25 -1.671875 C 0.363281 -1.828125 0.539062 -1.90625 0.78125 -1.90625 C 1 -1.90625 1.164062 -1.820312 1.28125 -1.65625 C 1.394531 -1.5 1.453125 -1.257812 1.453125 -0.9375 Z M 0.59375 -0.9375 C 0.59375 -0.726562 0.601562 -0.582031 0.625 -0.5 C 0.65625 -0.414062 0.707031 -0.375 0.78125 -0.375 C 0.84375 -0.375 0.882812 -0.414062 0.90625 -0.5 C 0.9375 -0.582031 0.953125 -0.726562 0.953125 -0.9375 C 0.953125 -1.144531 0.9375 -1.289062 0.90625 -1.375 C 0.882812 -1.457031 0.84375 -1.5 0.78125 -1.5 C 0.707031 -1.5 0.65625 -1.457031 0.625 -1.375 C 0.601562 -1.300781 0.59375 -1.15625 0.59375 -0.9375 Z M 0.59375 -0.9375 "/></g></g></g><g fill="#007e7a" fill-opacity="1"><g transform="translate(49.636653, 72.166514)"><g><path d="M 1.453125 0 L 0.078125 0 L 0.078125 -0.328125 L 0.53125 -0.796875 C 0.664062 -0.929688 0.753906 -1.023438 0.796875 -1.078125 C 0.835938 -1.128906 0.863281 -1.171875 0.875 -1.203125 C 0.894531 -1.242188 0.90625 -1.285156 0.90625 -1.328125 C 0.90625 -1.378906 0.890625 -1.414062 0.859375 -1.4375 C 0.828125 -1.46875 0.78125 -1.484375 0.71875 -1.484375 C 0.664062 -1.484375 0.609375 -1.460938 0.546875 -1.421875 C 0.484375 -1.390625 0.414062 -1.34375 0.34375 -1.28125 L 0.0625 -1.609375 C 0.15625 -1.691406 0.234375 -1.753906 0.296875 -1.796875 C 0.367188 -1.835938 0.441406 -1.863281 0.515625 -1.875 C 0.597656 -1.894531 0.6875 -1.90625 0.78125 -1.90625 C 0.90625 -1.90625 1.015625 -1.882812 1.109375 -1.84375 C 1.203125 -1.800781 1.273438 -1.738281 1.328125 -1.65625 C 1.378906 -1.582031 1.40625 -1.492188 1.40625 -1.390625 C 1.40625 -1.316406 1.394531 -1.25 1.375 -1.1875 C 1.363281 -1.125 1.335938 -1.0625 1.296875 -1 C 1.253906 -0.945312 1.203125 -0.882812 1.140625 -0.8125 C 1.078125 -0.75 0.941406 -0.625 0.734375 -0.4375 L 0.734375 -0.421875 L 1.453125 -0.421875 Z M 1.453125 0 "/></g></g></g><g fill="#007e7a" fill-opacity="1"><g transform="translate(51.185594, 72.166514)"><g><path d="M 1.453125 -0.9375 C 1.453125 -0.601562 1.394531 -0.359375 1.28125 -0.203125 C 1.175781 -0.046875 1.007812 0.03125 0.78125 0.03125 C 0.550781 0.03125 0.378906 -0.046875 0.265625 -0.203125 C 0.148438 -0.367188 0.09375 -0.613281 0.09375 -0.9375 C 0.09375 -1.269531 0.144531 -1.515625 0.25 -1.671875 C 0.363281 -1.828125 0.539062 -1.90625 0.78125 -1.90625 C 1 -1.90625 1.164062 -1.820312 1.28125 -1.65625 C 1.394531 -1.5 1.453125 -1.257812 1.453125 -0.9375 Z M 0.59375 -0.9375 C 0.59375 -0.726562 0.601562 -0.582031 0.625 -0.5 C 0.65625 -0.414062 0.707031 -0.375 0.78125 -0.375 C 0.84375 -0.375 0.882812 -0.414062 0.90625 -0.5 C 0.9375 -0.582031 0.953125 -0.726562 0.953125 -0.9375 C 0.953125 -1.144531 0.9375 -1.289062 0.90625 -1.375 C 0.882812 -1.457031 0.84375 -1.5 0.78125 -1.5 C 0.707031 -1.5 0.65625 -1.457031 0.625 -1.375 C 0.601562 -1.300781 0.59375 -1.15625 0.59375 -0.9375 Z M 0.59375 -0.9375 "/></g></g></g><g fill="#007e7a" fill-opacity="1"><g transform="translate(71.900964, 72.166514)"><g><path d="M 1.390625 -1.46875 C 1.390625 -1.351562 1.351562 -1.253906 1.28125 -1.171875 C 1.207031 -1.085938 1.101562 -1.03125 0.96875 -1 L 0.96875 -0.984375 C 1.28125 -0.941406 1.4375 -0.789062 1.4375 -0.53125 C 1.4375 -0.363281 1.363281 -0.226562 1.21875 -0.125 C 1.082031 -0.0195312 0.894531 0.03125 0.65625 0.03125 C 0.550781 0.03125 0.453125 0.0195312 0.359375 0 C 0.273438 -0.0078125 0.1875 -0.0351562 0.09375 -0.078125 L 0.09375 -0.5 C 0.175781 -0.457031 0.257812 -0.425781 0.34375 -0.40625 C 0.425781 -0.382812 0.503906 -0.375 0.578125 -0.375 C 0.691406 -0.375 0.773438 -0.390625 0.828125 -0.421875 C 0.878906 -0.453125 0.90625 -0.5 0.90625 -0.5625 C 0.90625 -0.613281 0.890625 -0.65625 0.859375 -0.6875 C 0.828125 -0.71875 0.78125 -0.738281 0.71875 -0.75 C 0.664062 -0.769531 0.59375 -0.78125 0.5 -0.78125 L 0.390625 -0.78125 L 0.390625 -1.15625 L 0.5 -1.15625 C 0.757812 -1.15625 0.890625 -1.222656 0.890625 -1.359375 C 0.890625 -1.410156 0.867188 -1.445312 0.828125 -1.46875 C 0.796875 -1.488281 0.742188 -1.5 0.671875 -1.5 C 0.554688 -1.5 0.429688 -1.457031 0.296875 -1.375 L 0.09375 -1.71875 C 0.195312 -1.789062 0.300781 -1.835938 0.40625 -1.859375 C 0.507812 -1.890625 0.628906 -1.90625 0.765625 -1.90625 C 0.953125 -1.90625 1.101562 -1.867188 1.21875 -1.796875 C 1.332031 -1.722656 1.390625 -1.613281 1.390625 -1.46875 Z M 1.390625 -1.46875 "/></g></g></g><g fill="#007e7a" fill-opacity="1"><g transform="translate(73.449905, 72.166514)"><g><path d="M 1.453125 -0.9375 C 1.453125 -0.601562 1.394531 -0.359375 1.28125 -0.203125 C 1.175781 -0.046875 1.007812 0.03125 0.78125 0.03125 C 0.550781 0.03125 0.378906 -0.046875 0.265625 -0.203125 C 0.148438 -0.367188 0.09375 -0.613281 0.09375 -0.9375 C 0.09375 -1.269531 0.144531 -1.515625 0.25 -1.671875 C 0.363281 -1.828125 0.539062 -1.90625 0.78125 -1.90625 C 1 -1.90625 1.164062 -1.820312 1.28125 -1.65625 C 1.394531 -1.5 1.453125 -1.257812 1.453125 -0.9375 Z M 0.59375 -0.9375 C 0.59375 -0.726562 0.601562 -0.582031 0.625 -0.5 C 0.65625 -0.414062 0.707031 -0.375 0.78125 -0.375 C 0.84375 -0.375 0.882812 -0.414062 0.90625 -0.5 C 0.9375 -0.582031 0.953125 -0.726562 0.953125 -0.9375 C 0.953125 -1.144531 0.9375 -1.289062 0.90625 -1.375 C 0.882812 -1.457031 0.84375 -1.5 0.78125 -1.5 C 0.707031 -1.5 0.65625 -1.457031 0.625 -1.375 C 0.601562 -1.300781 0.59375 -1.15625 0.59375 -0.9375 Z M 0.59375 -0.9375 "/></g></g></g><g clip-path="url(#c2e5b51587)"><g mask="url(#d553302cbd)"><g transform="matrix(1, 0, 0, 1, 6, 1)"><g clip-path="url(#e766d6f8b1)"><g clip-path="url(#19a977d556)"><path fill="#007e7a" d="M 0.65625 0.476562 L 67.449219 0.476562 L 67.449219 67.382812 L 0.65625 67.382812 Z M 0.65625 0.476562 " fill-opacity="1" fill-rule="nonzero"/></g></g></g></g></g><g clip-path="url(#f827fe92c6)"><g mask="url(#9c94aa7264)"><g transform="matrix(1, 0, 0, 1, 6, 14)"><g clip-path="url(#006941e014)"><g clip-path="url(#511ec086ea)"><path fill="#007e7a" d="M 0.65625 -12.523438 L 67.449219 -12.523438 L 67.449219 54.382812 L 0.65625 54.382812 Z M 0.65625 -12.523438 " fill-opacity="1" fill-rule="nonzero"/></g></g></g></g></g><g clip-path="url(#ff6d77d578)"><g mask="url(#1b87a15cd6)"><g transform="matrix(1, 0, 0, 1, 6, 28)"><g clip-path="url(#50eb4c8b73)"><g clip-path="url(#3c9be11286)"><path fill="#007e7a" d="M 0.65625 -26.523438 L 67.449219 -26.523438 L 67.449219 40.382812 L 0.65625 40.382812 Z M 0.65625 -26.523438 " fill-opacity="1" fill-rule="nonzero"/></g></g></g></g></g><g clip-path="url(#f3e3d2f776)"><g mask="url(#af5079a2f0)"><g transform="matrix(1, 0, 0, 1, 6, 41)"><g clip-path="url(#7f61981bfb)"><g clip-path="url(#c92b4addd7)"><path fill="#007e7a" d="M 0.65625 -39.523438 L 67.449219 -39.523438 L 67.449219 27.382812 L 0.65625 27.382812 Z M 0.65625 -39.523438 " fill-opacity="1" fill-rule="nonzero"/></g></g></g></g></g><g clip-path="url(#fd787ab47e)"><g mask="url(#dc257c4b59)"><g transform="matrix(1, 0, 0, 1, 6, 54)"><g clip-path="url(#03da1ddba4)"><g clip-path="url(#b1204302d0)"><path fill="#007e7a" d="M 0.65625 -52.523438 L 67.449219 -52.523438 L 67.449219 14.382812 L 0.65625 14.382812 Z M 0.65625 -52.523438 " fill-opacity="1" fill-rule="nonzero"/></g></g></g></g></g><g clip-path="url(#6c15e7c5ed)"><g mask="url(#131a07af60)"><g transform="matrix(1, 0, 0, 1, 6, 68)"><g clip-path="url(#47b7880d55)"><g clip-path="url(#b1309083ee)"><path fill="#007e7a" d="M 0.65625 -66.523438 L 67.449219 -66.523438 L 67.449219 0.382812 L 0.65625 0.382812 Z M 0.65625 -66.523438 " fill-opacity="1" fill-rule="nonzero"/></g></g></g></g></g><g fill="#007e7a" fill-opacity="1"><g transform="translate(0.0000015, 2.518649)"><g><path d="M 1.453125 0 L 0.078125 0 L 0.078125 -0.328125 L 0.53125 -0.796875 C 0.664062 -0.929688 0.753906 -1.023438 0.796875 -1.078125 C 0.835938 -1.128906 0.863281 -1.171875 0.875 -1.203125 C 0.894531 -1.242188 0.90625 -1.285156 0.90625 -1.328125 C 0.90625 -1.378906 0.890625 -1.414062 0.859375 -1.4375 C 0.828125 -1.46875 0.78125 -1.484375 0.71875 -1.484375 C 0.664062 -1.484375 0.609375 -1.460938 0.546875 -1.421875 C 0.484375 -1.390625 0.414062 -1.34375 0.34375 -1.28125 L 0.0625 -1.609375 C 0.15625 -1.691406 0.234375 -1.753906 0.296875 -1.796875 C 0.367188 -1.835938 0.441406 -1.863281 0.515625 -1.875 C 0.597656 -1.894531 0.6875 -1.90625 0.78125 -1.90625 C 0.90625 -1.90625 1.015625 -1.882812 1.109375 -1.84375 C 1.203125 -1.800781 1.273438 -1.738281 1.328125 -1.65625 C 1.378906 -1.582031 1.40625 -1.492188 1.40625 -1.390625 C 1.40625 -1.316406 1.394531 -1.25 1.375 -1.1875 C 1.363281 -1.125 1.335938 -1.0625 1.296875 -1 C 1.253906 -0.945312 1.203125 -0.882812 1.140625 -0.8125 C 1.078125 -0.75 0.941406 -0.625 0.734375 -0.4375 L 0.734375 -0.421875 L 1.453125 -0.421875 Z M 1.453125 0 "/></g></g></g><g fill="#007e7a" fill-opacity="1"><g transform="translate(1.548942, 2.518649)"><g><path d="M 0.859375 -1.234375 C 0.960938 -1.234375 1.054688 -1.207031 1.140625 -1.15625 C 1.234375 -1.101562 1.300781 -1.03125 1.34375 -0.9375 C 1.394531 -0.851562 1.421875 -0.75 1.421875 -0.625 C 1.421875 -0.414062 1.359375 -0.253906 1.234375 -0.140625 C 1.109375 -0.0234375 0.914062 0.03125 0.65625 0.03125 C 0.4375 0.03125 0.257812 -0.00390625 0.125 -0.078125 L 0.125 -0.5 C 0.195312 -0.457031 0.28125 -0.425781 0.375 -0.40625 C 0.46875 -0.382812 0.550781 -0.375 0.625 -0.375 C 0.71875 -0.375 0.785156 -0.394531 0.828125 -0.4375 C 0.878906 -0.476562 0.90625 -0.535156 0.90625 -0.609375 C 0.90625 -0.679688 0.878906 -0.738281 0.828125 -0.78125 C 0.773438 -0.820312 0.695312 -0.84375 0.59375 -0.84375 C 0.519531 -0.84375 0.4375 -0.828125 0.34375 -0.796875 L 0.15625 -0.890625 L 0.21875 -1.890625 L 1.296875 -1.890625 L 1.296875 -1.453125 L 0.65625 -1.453125 L 0.640625 -1.21875 C 0.703125 -1.226562 0.742188 -1.234375 0.765625 -1.234375 C 0.796875 -1.234375 0.828125 -1.234375 0.859375 -1.234375 Z M 0.859375 -1.234375 "/></g></g></g><g fill="#007e7a" fill-opacity="1"><g transform="translate(3.097882, 2.518649)"><g><path d="M 1.453125 -0.9375 C 1.453125 -0.601562 1.394531 -0.359375 1.28125 -0.203125 C 1.175781 -0.046875 1.007812 0.03125 0.78125 0.03125 C 0.550781 0.03125 0.378906 -0.046875 0.265625 -0.203125 C 0.148438 -0.367188 0.09375 -0.613281 0.09375 -0.9375 C 0.09375 -1.269531 0.144531 -1.515625 0.25 -1.671875 C 0.363281 -1.828125 0.539062 -1.90625 0.78125 -1.90625 C 1 -1.90625 1.164062 -1.820312 1.28125 -1.65625 C 1.394531 -1.5 1.453125 -1.257812 1.453125 -0.9375 Z M 0.59375 -0.9375 C 0.59375 -0.726562 0.601562 -0.582031 0.625 -0.5 C 0.65625 -0.414062 0.707031 -0.375 0.78125 -0.375 C 0.84375 -0.375 0.882812 -0.414062 0.90625 -0.5 C 0.9375 -0.582031 0.953125 -0.726562 0.953125 -0.9375 C 0.953125 -1.144531 0.9375 -1.289062 0.90625 -1.375 C 0.882812 -1.457031 0.84375 -1.5 0.78125 -1.5 C 0.707031 -1.5 0.65625 -1.457031 0.625 -1.375 C 0.601562 -1.300781 0.59375 -1.15625 0.59375 -0.9375 Z M 0.59375 -0.9375 "/></g></g></g><g fill="#007e7a" fill-opacity="1"><g transform="translate(4.647459, 2.518649)"><g/></g></g><g fill="#007e7a" fill-opacity="1"><g transform="translate(0.0000015, 15.877235)"><g><path d="M 1.453125 0 L 0.078125 0 L 0.078125 -0.328125 L 0.53125 -0.796875 C 0.664062 -0.929688 0.753906 -1.023438 0.796875 -1.078125 C 0.835938 -1.128906 0.863281 -1.171875 0.875 -1.203125 C 0.894531 -1.242188 0.90625 -1.285156 0.90625 -1.328125 C 0.90625 -1.378906 0.890625 -1.414062 0.859375 -1.4375 C 0.828125 -1.46875 0.78125 -1.484375 0.71875 -1.484375 C 0.664062 -1.484375 0.609375 -1.460938 0.546875 -1.421875 C 0.484375 -1.390625 0.414062 -1.34375 0.34375 -1.28125 L 0.0625 -1.609375 C 0.15625 -1.691406 0.234375 -1.753906 0.296875 -1.796875 C 0.367188 -1.835938 0.441406 -1.863281 0.515625 -1.875 C 0.597656 -1.894531 0.6875 -1.90625 0.78125 -1.90625 C 0.90625 -1.90625 1.015625 -1.882812 1.109375 -1.84375 C 1.203125 -1.800781 1.273438 -1.738281 1.328125 -1.65625 C 1.378906 -1.582031 1.40625 -1.492188 1.40625 -1.390625 C 1.40625 -1.316406 1.394531 -1.25 1.375 -1.1875 C 1.363281 -1.125 1.335938 -1.0625 1.296875 -1 C 1.253906 -0.945312 1.203125 -0.882812 1.140625 -0.8125 C 1.078125 -0.75 0.941406 -0.625 0.734375 -0.4375 L 0.734375 -0.421875 L 1.453125 -0.421875 Z M 1.453125 0 "/></g></g></g><g fill="#007e7a" fill-opacity="1"><g transform="translate(1.548942, 15.877235)"><g><path d="M 1.453125 -0.9375 C 1.453125 -0.601562 1.394531 -0.359375 1.28125 -0.203125 C 1.175781 -0.046875 1.007812 0.03125 0.78125 0.03125 C 0.550781 0.03125 0.378906 -0.046875 0.265625 -0.203125 C 0.148438 -0.367188 0.09375 -0.613281 0.09375 -0.9375 C 0.09375 -1.269531 0.144531 -1.515625 0.25 -1.671875 C 0.363281 -1.828125 0.539062 -1.90625 0.78125 -1.90625 C 1 -1.90625 1.164062 -1.820312 1.28125 -1.65625 C 1.394531 -1.5 1.453125 -1.257812 1.453125 -0.9375 Z M 0.59375 -0.9375 C 0.59375 -0.726562 0.601562 -0.582031 0.625 -0.5 C 0.65625 -0.414062 0.707031 -0.375 0.78125 -0.375 C 0.84375 -0.375 0.882812 -0.414062 0.90625 -0.5 C 0.9375 -0.582031 0.953125 -0.726562 0.953125 -0.9375 C 0.953125 -1.144531 0.9375 -1.289062 0.90625 -1.375 C 0.882812 -1.457031 0.84375 -1.5 0.78125 -1.5 C 0.707031 -1.5 0.65625 -1.457031 0.625 -1.375 C 0.601562 -1.300781 0.59375 -1.15625 0.59375 -0.9375 Z M 0.59375 -0.9375 "/></g></g></g><g fill="#007e7a" fill-opacity="1"><g transform="translate(3.097882, 15.877235)"><g><path d="M 1.453125 -0.9375 C 1.453125 -0.601562 1.394531 -0.359375 1.28125 -0.203125 C 1.175781 -0.046875 1.007812 0.03125 0.78125 0.03125 C 0.550781 0.03125 0.378906 -0.046875 0.265625 -0.203125 C 0.148438 -0.367188 0.09375 -0.613281 0.09375 -0.9375 C 0.09375 -1.269531 0.144531 -1.515625 0.25 -1.671875 C 0.363281 -1.828125 0.539062 -1.90625 0.78125 -1.90625 C 1 -1.90625 1.164062 -1.820312 1.28125 -1.65625 C 1.394531 -1.5 1.453125 -1.257812 1.453125 -0.9375 Z M 0.59375 -0.9375 C 0.59375 -0.726562 0.601562 -0.582031 0.625 -0.5 C 0.65625 -0.414062 0.707031 -0.375 0.78125 -0.375 C 0.84375 -0.375 0.882812 -0.414062 0.90625 -0.5 C 0.9375 -0.582031 0.953125 -0.726562 0.953125 -0.9375 C 0.953125 -1.144531 0.9375 -1.289062 0.90625 -1.375 C 0.882812 -1.457031 0.84375 -1.5 0.78125 -1.5 C 0.707031 -1.5 0.65625 -1.457031 0.625 -1.375 C 0.601562 -1.300781 0.59375 -1.15625 0.59375 -0.9375 Z M 0.59375 -0.9375 "/></g></g></g><g fill="#007e7a" fill-opacity="1"><g transform="translate(4.647459, 15.877235)"><g/></g></g><g fill="#007e7a" fill-opacity="1"><g transform="translate(0.0000015, 29.23582)"><g><path d="M 1.21875 0 L 0.703125 0 L 0.703125 -1 C 0.703125 -1.125 0.703125 -1.234375 0.703125 -1.328125 C 0.671875 -1.285156 0.632812 -1.242188 0.59375 -1.203125 L 0.375 -1.03125 L 0.109375 -1.359375 L 0.75 -1.890625 L 1.21875 -1.890625 Z M 1.21875 0 "/></g></g></g><g fill="#007e7a" fill-opacity="1"><g transform="translate(1.548942, 29.23582)"><g><path d="M 0.859375 -1.234375 C 0.960938 -1.234375 1.054688 -1.207031 1.140625 -1.15625 C 1.234375 -1.101562 1.300781 -1.03125 1.34375 -0.9375 C 1.394531 -0.851562 1.421875 -0.75 1.421875 -0.625 C 1.421875 -0.414062 1.359375 -0.253906 1.234375 -0.140625 C 1.109375 -0.0234375 0.914062 0.03125 0.65625 0.03125 C 0.4375 0.03125 0.257812 -0.00390625 0.125 -0.078125 L 0.125 -0.5 C 0.195312 -0.457031 0.28125 -0.425781 0.375 -0.40625 C 0.46875 -0.382812 0.550781 -0.375 0.625 -0.375 C 0.71875 -0.375 0.785156 -0.394531 0.828125 -0.4375 C 0.878906 -0.476562 0.90625 -0.535156 0.90625 -0.609375 C 0.90625 -0.679688 0.878906 -0.738281 0.828125 -0.78125 C 0.773438 -0.820312 0.695312 -0.84375 0.59375 -0.84375 C 0.519531 -0.84375 0.4375 -0.828125 0.34375 -0.796875 L 0.15625 -0.890625 L 0.21875 -1.890625 L 1.296875 -1.890625 L 1.296875 -1.453125 L 0.65625 -1.453125 L 0.640625 -1.21875 C 0.703125 -1.226562 0.742188 -1.234375 0.765625 -1.234375 C 0.796875 -1.234375 0.828125 -1.234375 0.859375 -1.234375 Z M 0.859375 -1.234375 "/></g></g></g><g fill="#007e7a" fill-opacity="1"><g transform="translate(3.097882, 29.23582)"><g><path d="M 1.453125 -0.9375 C 1.453125 -0.601562 1.394531 -0.359375 1.28125 -0.203125 C 1.175781 -0.046875 1.007812 0.03125 0.78125 0.03125 C 0.550781 0.03125 0.378906 -0.046875 0.265625 -0.203125 C 0.148438 -0.367188 0.09375 -0.613281 0.09375 -0.9375 C 0.09375 -1.269531 0.144531 -1.515625 0.25 -1.671875 C 0.363281 -1.828125 0.539062 -1.90625 0.78125 -1.90625 C 1 -1.90625 1.164062 -1.820312 1.28125 -1.65625 C 1.394531 -1.5 1.453125 -1.257812 1.453125 -0.9375 Z M 0.59375 -0.9375 C 0.59375 -0.726562 0.601562 -0.582031 0.625 -0.5 C 0.65625 -0.414062 0.707031 -0.375 0.78125 -0.375 C 0.84375 -0.375 0.882812 -0.414062 0.90625 -0.5 C 0.9375 -0.582031 0.953125 -0.726562 0.953125 -0.9375 C 0.953125 -1.144531 0.9375 -1.289062 0.90625 -1.375 C 0.882812 -1.457031 0.84375 -1.5 0.78125 -1.5 C 0.707031 -1.5 0.65625 -1.457031 0.625 -1.375 C 0.601562 -1.300781 0.59375 -1.15625 0.59375 -0.9375 Z M 0.59375 -0.9375 "/></g></g></g><g fill="#007e7a" fill-opacity="1"><g transform="translate(4.647459, 29.23582)"><g/></g></g><g fill="#007e7a" fill-opacity="1"><g transform="translate(0.0000015, 42.594408)"><g><path d="M 1.21875 0 L 0.703125 0 L 0.703125 -1 C 0.703125 -1.125 0.703125 -1.234375 0.703125 -1.328125 C 0.671875 -1.285156 0.632812 -1.242188 0.59375 -1.203125 L 0.375 -1.03125 L 0.109375 -1.359375 L 0.75 -1.890625 L 1.21875 -1.890625 Z M 1.21875 0 "/></g></g></g><g fill="#007e7a" fill-opacity="1"><g transform="translate(1.548942, 42.594408)"><g><path d="M 1.453125 -0.9375 C 1.453125 -0.601562 1.394531 -0.359375 1.28125 -0.203125 C 1.175781 -0.046875 1.007812 0.03125 0.78125 0.03125 C 0.550781 0.03125 0.378906 -0.046875 0.265625 -0.203125 C 0.148438 -0.367188 0.09375 -0.613281 0.09375 -0.9375 C 0.09375 -1.269531 0.144531 -1.515625 0.25 -1.671875 C 0.363281 -1.828125 0.539062 -1.90625 0.78125 -1.90625 C 1 -1.90625 1.164062 -1.820312 1.28125 -1.65625 C 1.394531 -1.5 1.453125 -1.257812 1.453125 -0.9375 Z M 0.59375 -0.9375 C 0.59375 -0.726562 0.601562 -0.582031 0.625 -0.5 C 0.65625 -0.414062 0.707031 -0.375 0.78125 -0.375 C 0.84375 -0.375 0.882812 -0.414062 0.90625 -0.5 C 0.9375 -0.582031 0.953125 -0.726562 0.953125 -0.9375 C 0.953125 -1.144531 0.9375 -1.289062 0.90625 -1.375 C 0.882812 -1.457031 0.84375 -1.5 0.78125 -1.5 C 0.707031 -1.5 0.65625 -1.457031 0.625 -1.375 C 0.601562 -1.300781 0.59375 -1.15625 0.59375 -0.9375 Z M 0.59375 -0.9375 "/></g></g></g><g fill="#007e7a" fill-opacity="1"><g transform="translate(3.097882, 42.594408)"><g><path d="M 1.453125 -0.9375 C 1.453125 -0.601562 1.394531 -0.359375 1.28125 -0.203125 C 1.175781 -0.046875 1.007812 0.03125 0.78125 0.03125 C 0.550781 0.03125 0.378906 -0.046875 0.265625 -0.203125 C 0.148438 -0.367188 0.09375 -0.613281 0.09375 -0.9375 C 0.09375 -1.269531 0.144531 -1.515625 0.25 -1.671875 C 0.363281 -1.828125 0.539062 -1.90625 0.78125 -1.90625 C 1 -1.90625 1.164062 -1.820312 1.28125 -1.65625 C 1.394531 -1.5 1.453125 -1.257812 1.453125 -0.9375 Z M 0.59375 -0.9375 C 0.59375 -0.726562 0.601562 -0.582031 0.625 -0.5 C 0.65625 -0.414062 0.707031 -0.375 0.78125 -0.375 C 0.84375 -0.375 0.882812 -0.414062 0.90625 -0.5 C 0.9375 -0.582031 0.953125 -0.726562 0.953125 -0.9375 C 0.953125 -1.144531 0.9375 -1.289062 0.90625 -1.375 C 0.882812 -1.457031 0.84375 -1.5 0.78125 -1.5 C 0.707031 -1.5 0.65625 -1.457031 0.625 -1.375 C 0.601562 -1.300781 0.59375 -1.15625 0.59375 -0.9375 Z M 0.59375 -0.9375 "/></g></g></g><g fill="#007e7a" fill-opacity="1"><g transform="translate(4.647459, 42.594408)"><g/></g></g><g fill="#007e7a" fill-opacity="1"><g transform="translate(1.549516, 55.952993)"><g><path d="M 0.859375 -1.234375 C 0.960938 -1.234375 1.054688 -1.207031 1.140625 -1.15625 C 1.234375 -1.101562 1.300781 -1.03125 1.34375 -0.9375 C 1.394531 -0.851562 1.421875 -0.75 1.421875 -0.625 C 1.421875 -0.414062 1.359375 -0.253906 1.234375 -0.140625 C 1.109375 -0.0234375 0.914062 0.03125 0.65625 0.03125 C 0.4375 0.03125 0.257812 -0.00390625 0.125 -0.078125 L 0.125 -0.5 C 0.195312 -0.457031 0.28125 -0.425781 0.375 -0.40625 C 0.46875 -0.382812 0.550781 -0.375 0.625 -0.375 C 0.71875 -0.375 0.785156 -0.394531 0.828125 -0.4375 C 0.878906 -0.476562 0.90625 -0.535156 0.90625 -0.609375 C 0.90625 -0.679688 0.878906 -0.738281 0.828125 -0.78125 C 0.773438 -0.820312 0.695312 -0.84375 0.59375 -0.84375 C 0.519531 -0.84375 0.4375 -0.828125 0.34375 -0.796875 L 0.15625 -0.890625 L 0.21875 -1.890625 L 1.296875 -1.890625 L 1.296875 -1.453125 L 0.65625 -1.453125 L 0.640625 -1.21875 C 0.703125 -1.226562 0.742188 -1.234375 0.765625 -1.234375 C 0.796875 -1.234375 0.828125 -1.234375 0.859375 -1.234375 Z M 0.859375 -1.234375 "/></g></g></g><g fill="#007e7a" fill-opacity="1"><g transform="translate(3.098456, 55.952993)"><g><path d="M 1.453125 -0.9375 C 1.453125 -0.601562 1.394531 -0.359375 1.28125 -0.203125 C 1.175781 -0.046875 1.007812 0.03125 0.78125 0.03125 C 0.550781 0.03125 0.378906 -0.046875 0.265625 -0.203125 C 0.148438 -0.367188 0.09375 -0.613281 0.09375 -0.9375 C 0.09375 -1.269531 0.144531 -1.515625 0.25 -1.671875 C 0.363281 -1.828125 0.539062 -1.90625 0.78125 -1.90625 C 1 -1.90625 1.164062 -1.820312 1.28125 -1.65625 C 1.394531 -1.5 1.453125 -1.257812 1.453125 -0.9375 Z M 0.59375 -0.9375 C 0.59375 -0.726562 0.601562 -0.582031 0.625 -0.5 C 0.65625 -0.414062 0.707031 -0.375 0.78125 -0.375 C 0.84375 -0.375 0.882812 -0.414062 0.90625 -0.5 C 0.9375 -0.582031 0.953125 -0.726562 0.953125 -0.9375 C 0.953125 -1.144531 0.9375 -1.289062 0.90625 -1.375 C 0.882812 -1.457031 0.84375 -1.5 0.78125 -1.5 C 0.707031 -1.5 0.65625 -1.457031 0.625 -1.375 C 0.601562 -1.300781 0.59375 -1.15625 0.59375 -0.9375 Z M 0.59375 -0.9375 "/></g></g></g><g fill="#007e7a" fill-opacity="1"><g transform="translate(4.647821, 55.952993)"><g/></g></g><g fill="#007e7a" fill-opacity="1"><g transform="translate(3.099031, 69.311577)"><g><path d="M 1.453125 -0.9375 C 1.453125 -0.601562 1.394531 -0.359375 1.28125 -0.203125 C 1.175781 -0.046875 1.007812 0.03125 0.78125 0.03125 C 0.550781 0.03125 0.378906 -0.046875 0.265625 -0.203125 C 0.148438 -0.367188 0.09375 -0.613281 0.09375 -0.9375 C 0.09375 -1.269531 0.144531 -1.515625 0.25 -1.671875 C 0.363281 -1.828125 0.539062 -1.90625 0.78125 -1.90625 C 1 -1.90625 1.164062 -1.820312 1.28125 -1.65625 C 1.394531 -1.5 1.453125 -1.257812 1.453125 -0.9375 Z M 0.59375 -0.9375 C 0.59375 -0.726562 0.601562 -0.582031 0.625 -0.5 C 0.65625 -0.414062 0.707031 -0.375 0.78125 -0.375 C 0.84375 -0.375 0.882812 -0.414062 0.90625 -0.5 C 0.9375 -0.582031 0.953125 -0.726562 0.953125 -0.9375 C 0.953125 -1.144531 0.9375 -1.289062 0.90625 -1.375 C 0.882812 -1.457031 0.84375 -1.5 0.78125 -1.5 C 0.707031 -1.5 0.65625 -1.457031 0.625 -1.375 C 0.601562 -1.300781 0.59375 -1.15625 0.59375 -0.9375 Z M 0.59375 -0.9375 "/></g></g></g><g fill="#007e7a" fill-opacity="1"><g transform="translate(4.648183, 69.311577)"><g/></g></g><g clip-path="url(#677d1331b3)"><g clip-path="url(#198a69e274)"><path fill="#ffbd59" d="M 12.640625 3.507812 L 65.242188 3.507812 L 65.242188 65.816406 L 12.640625 65.816406 Z M 12.640625 3.507812 " fill-opacity="1" fill-rule="nonzero"/></g></g><g clip-path="url(#ae7e0b75ec)"><g clip-path="url(#dc860f6d83)"><path fill="#ffbd59" d="M 12.640625 3.507812 L 65.242188 3.507812 L 65.242188 65.816406 L 12.640625 65.816406 Z M 12.640625 3.507812 " fill-opacity="1" fill-rule="nonzero"/></g></g><g clip-path="url(#9bd7b22b12)"><g clip-path="url(#48532f970a)"><path fill="#ffbd59" d="M 12.640625 3.507812 L 65.242188 3.507812 L 65.242188 65.816406 L 12.640625 65.816406 Z M 12.640625 3.507812 " fill-opacity="1" fill-rule="nonzero"/></g></g><g clip-path="url(#9e05f7452e)"><g clip-path="url(#3e9ac0cf23)"><path fill="#ffbd59" d="M 12.640625 3.507812 L 65.242188 3.507812 L 65.242188 65.816406 L 12.640625 65.816406 Z M 12.640625 3.507812 " fill-opacity="1" fill-rule="nonzero"/></g></g><g clip-path="url(#11a88d12b6)"><g clip-path="url(#d873dc709f)"><path fill="#ffbd59" d="M 12.640625 3.507812 L 65.242188 3.507812 L 65.242188 65.816406 L 12.640625 65.816406 Z M 12.640625 3.507812 " fill-opacity="1" fill-rule="nonzero"/></g></g><g clip-path="url(#bc734ab2d7)"><g clip-path="url(#953cfcf7b6)"><path fill="#ffbd59" d="M 12.640625 3.507812 L 65.242188 3.507812 L 65.242188 65.816406 L 12.640625 65.816406 Z M 12.640625 3.507812 " fill-opacity="1" fill-rule="nonzero"/></g></g><g clip-path="url(#f85e67e48f)"><g clip-path="url(#ccf3c2a1a6)"><path fill="#ff3131" d="M 12.640625 3.507812 L 65.242188 3.507812 L 65.242188 65.816406 L 12.640625 65.816406 Z M 12.640625 3.507812 " fill-opacity="1" fill-rule="nonzero"/></g></g><g clip-path="url(#0681fe9d55)"><g clip-path="url(#3784d969e4)"><path fill="#ff3131" d="M 12.640625 3.507812 L 65.242188 3.507812 L 65.242188 65.816406 L 12.640625 65.816406 Z M 12.640625 3.507812 " fill-opacity="1" fill-rule="nonzero"/></g></g><g clip-path="url(#1b5d7c5a1f)"><g clip-path="url(#9812ad9bbd)"><path fill="#ff3131" d="M 12.640625 3.507812 L 65.242188 3.507812 L 65.242188 65.816406 L 12.640625 65.816406 Z M 12.640625 3.507812 " fill-opacity="1" fill-rule="nonzero"/></g></g><g clip-path="url(#f5d08acae7)"><g clip-path="url(#66e18b595f)"><path fill="#ff3131" d="M 12.640625 3.507812 L 65.242188 3.507812 L 65.242188 65.816406 L 12.640625 65.816406 Z M 12.640625 3.507812 " fill-opacity="1" fill-rule="nonzero"/></g></g><g clip-path="url(#40fa85eb35)"><g clip-path="url(#27596c7a2a)"><path fill="#ff3131" d="M 12.640625 3.507812 L 65.242188 3.507812 L 65.242188 65.816406 L 12.640625 65.816406 Z M 12.640625 3.507812 " fill-opacity="1" fill-rule="nonzero"/></g></g><g clip-path="url(#fc7d3cfec7)"><g clip-path="url(#b83a1ff489)"><path fill="#ff3131" d="M 12.640625 3.507812 L 65.242188 3.507812 L 65.242188 65.816406 L 12.640625 65.816406 Z M 12.640625 3.507812 " fill-opacity="1" fill-rule="nonzero"/></g></g></svg>