<svg xmlns="http://www.w3.org/2000/svg" xmlns:xlink="http://www.w3.org/1999/xlink" width="300" zoomAndPan="magnify" viewBox="0 0 224.87999 74.999997" height="100" preserveAspectRatio="xMidYMid meet" version="1.0"><defs><g/><clipPath id="710fc60790"><path d="M 11.089844 10.828125 L 64.3125 10.828125 L 64.3125 64.050781 L 11.089844 64.050781 Z M 11.089844 10.828125 " clip-rule="nonzero"/></clipPath></defs><g clip-path="url(#710fc60790)"><path fill="#ffffff" d="M 37.699219 22.246094 C 29.324219 22.246094 22.507812 29.0625 22.507812 37.4375 C 22.507812 45.816406 29.324219 52.632812 37.699219 52.632812 C 46.078125 52.632812 52.894531 45.816406 52.894531 37.4375 C 52.894531 29.0625 46.078125 22.246094 37.699219 22.246094 Z M 37.699219 51.785156 C 29.789062 51.785156 23.351562 45.351562 23.351562 37.4375 C 23.351562 29.527344 29.789062 23.089844 37.699219 23.089844 C 45.613281 23.089844 52.050781 29.527344 52.050781 37.4375 C 52.050781 45.351562 45.613281 51.785156 37.699219 51.785156 Z M 55.070312 32.472656 L 63.890625 32.472656 C 64.121094 32.472656 64.3125 32.285156 64.3125 32.050781 C 64.3125 31.820312 64.121094 31.628906 63.890625 31.628906 L 54.804688 31.628906 C 54.597656 31.015625 54.355469 30.417969 54.082031 29.835938 L 59.195312 29.835938 C 59.429688 29.835938 59.617188 29.644531 59.617188 29.414062 L 59.617188 25.875 C 60.804688 25.671875 61.707031 24.640625 61.707031 23.398438 C 61.707031 22.011719 60.582031 20.886719 59.195312 20.886719 C 57.8125 20.886719 56.683594 22.011719 56.683594 23.398438 C 56.683594 24.640625 57.589844 25.671875 58.773438 25.875 L 58.773438 28.992188 L 53.664062 28.992188 C 50.6875 23.394531 44.855469 19.535156 38.125 19.378906 L 38.125 14.859375 L 39.894531 13.980469 C 40.179688 15.054688 41.160156 15.851562 42.324219 15.851562 C 43.710938 15.851562 44.835938 14.726562 44.835938 13.339844 C 44.835938 11.953125 43.710938 10.828125 42.324219 10.828125 C 41.03125 10.828125 39.960938 11.8125 39.828125 13.070312 L 37.511719 14.21875 C 37.371094 14.292969 37.277344 14.4375 37.277344 14.597656 L 37.277344 19.378906 C 36.84375 19.390625 36.414062 19.417969 35.988281 19.457031 L 35.988281 11.25 C 35.988281 11.015625 35.800781 10.828125 35.566406 10.828125 C 35.332031 10.828125 35.144531 11.015625 35.144531 11.25 L 35.144531 19.558594 C 29.328125 20.382812 24.394531 23.992188 21.738281 28.992188 L 16.628906 28.992188 L 16.628906 25.875 C 17.8125 25.671875 18.71875 24.640625 18.71875 23.398438 C 18.71875 22.011719 17.589844 20.886719 16.207031 20.886719 C 14.820312 20.886719 13.691406 22.011719 13.691406 23.398438 C 13.691406 24.640625 14.597656 25.671875 15.78125 25.875 L 15.78125 29.414062 C 15.78125 29.644531 15.972656 29.835938 16.207031 29.835938 L 21.320312 29.835938 C 21.046875 30.417969 20.804688 31.015625 20.597656 31.628906 L 11.511719 31.628906 C 11.28125 31.628906 11.089844 31.820312 11.089844 32.050781 C 11.089844 32.285156 11.28125 32.472656 11.511719 32.472656 L 20.332031 32.472656 C 19.917969 33.921875 19.679688 35.445312 19.644531 37.015625 L 16.078125 37.015625 C 15.878906 35.832031 14.84375 34.925781 13.601562 34.925781 C 12.21875 34.925781 11.089844 36.054688 11.089844 37.4375 C 11.089844 38.824219 12.21875 39.949219 13.601562 39.949219 C 14.84375 39.949219 15.878906 39.046875 16.078125 37.859375 L 19.644531 37.859375 C 19.679688 39.429688 19.917969 40.953125 20.332031 42.402344 L 11.511719 42.402344 C 11.28125 42.402344 11.089844 42.589844 11.089844 42.824219 C 11.089844 43.058594 11.28125 43.246094 11.511719 43.246094 L 20.597656 43.246094 C 20.804688 43.859375 21.046875 44.460938 21.320312 45.042969 L 16.207031 45.042969 C 15.972656 45.042969 15.78125 45.230469 15.78125 45.464844 L 15.78125 49.003906 C 14.597656 49.203125 13.691406 50.238281 13.691406 51.476562 C 13.691406 52.863281 14.820312 53.992188 16.207031 53.992188 C 17.589844 53.992188 18.71875 52.863281 18.71875 51.476562 C 18.71875 50.238281 17.8125 49.203125 16.628906 49.003906 L 16.628906 45.886719 L 21.738281 45.886719 C 24.714844 51.484375 30.546875 55.339844 37.277344 55.496094 L 37.277344 60.015625 L 35.507812 60.898438 C 35.222656 59.820312 34.242188 59.023438 33.078125 59.023438 C 31.691406 59.023438 30.566406 60.152344 30.566406 61.535156 C 30.566406 62.921875 31.691406 64.050781 33.078125 64.050781 C 34.371094 64.050781 35.441406 63.066406 35.574219 61.804688 L 37.890625 60.65625 C 38.03125 60.585938 38.125 60.4375 38.125 60.277344 L 38.125 55.496094 C 38.558594 55.484375 38.988281 55.460938 39.414062 55.417969 L 39.414062 63.625 C 39.414062 63.859375 39.601562 64.050781 39.835938 64.050781 C 40.070312 64.050781 40.257812 63.859375 40.257812 63.625 L 40.257812 55.320312 C 46.074219 54.492188 51.007812 50.882812 53.664062 45.886719 L 58.773438 45.886719 L 58.773438 49.003906 C 57.589844 49.203125 56.683594 50.238281 56.683594 51.476562 C 56.683594 52.863281 57.8125 53.992188 59.195312 53.992188 C 60.582031 53.992188 61.710938 52.863281 61.710938 51.476562 C 61.710938 50.238281 60.804688 49.203125 59.621094 49.003906 L 59.621094 45.464844 C 59.621094 45.230469 59.429688 45.042969 59.195312 45.042969 L 54.082031 45.042969 C 54.355469 44.460938 54.597656 43.859375 54.804688 43.246094 L 63.890625 43.246094 C 64.121094 43.246094 64.3125 43.058594 64.3125 42.824219 C 64.3125 42.589844 64.121094 42.402344 63.890625 42.402344 L 55.070312 42.402344 C 55.484375 40.953125 55.722656 39.429688 55.757812 37.859375 L 59.324219 37.859375 C 59.523438 39.046875 60.558594 39.949219 61.800781 39.949219 C 63.183594 39.949219 64.3125 38.824219 64.3125 37.4375 C 64.3125 36.054688 63.183594 34.925781 61.800781 34.925781 C 60.558594 34.925781 59.523438 35.832031 59.324219 37.015625 L 55.757812 37.015625 C 55.722656 35.445312 55.484375 33.921875 55.070312 32.472656 Z M 57.527344 23.398438 C 57.527344 22.480469 58.277344 21.730469 59.195312 21.730469 C 60.117188 21.730469 60.863281 22.480469 60.863281 23.398438 C 60.863281 24.316406 60.117188 25.066406 59.195312 25.066406 C 58.277344 25.066406 57.527344 24.316406 57.527344 23.398438 Z M 42.324219 11.671875 C 43.246094 11.671875 43.992188 12.421875 43.992188 13.339844 C 43.992188 14.257812 43.246094 15.007812 42.324219 15.007812 C 41.40625 15.007812 40.65625 14.257812 40.65625 13.339844 C 40.65625 12.421875 41.40625 11.671875 42.324219 11.671875 Z M 14.539062 23.398438 C 14.539062 22.480469 15.285156 21.730469 16.207031 21.730469 C 17.125 21.730469 17.871094 22.480469 17.871094 23.398438 C 17.871094 24.316406 17.125 25.066406 16.207031 25.066406 C 15.285156 25.066406 14.539062 24.316406 14.539062 23.398438 Z M 13.601562 39.105469 C 12.683594 39.105469 11.933594 38.359375 11.933594 37.4375 C 11.933594 36.519531 12.683594 35.769531 13.601562 35.769531 C 14.523438 35.769531 15.269531 36.519531 15.269531 37.4375 C 15.269531 38.359375 14.523438 39.105469 13.601562 39.105469 Z M 17.871094 51.476562 C 17.871094 52.398438 17.125 53.144531 16.207031 53.144531 C 15.285156 53.144531 14.539062 52.398438 14.539062 51.476562 C 14.539062 50.558594 15.285156 49.8125 16.207031 49.8125 C 17.125 49.8125 17.871094 50.558594 17.871094 51.476562 Z M 33.078125 63.203125 C 32.15625 63.203125 31.410156 62.457031 31.410156 61.535156 C 31.410156 60.617188 32.15625 59.871094 33.078125 59.871094 C 33.996094 59.871094 34.746094 60.617188 34.746094 61.535156 C 34.746094 62.457031 33.996094 63.203125 33.078125 63.203125 Z M 60.863281 51.476562 C 60.863281 52.398438 60.117188 53.144531 59.195312 53.144531 C 58.277344 53.144531 57.527344 52.398438 57.527344 51.476562 C 57.527344 50.558594 58.277344 49.8125 59.195312 49.8125 C 60.117188 49.8125 60.863281 50.558594 60.863281 51.476562 Z M 61.800781 35.769531 C 62.71875 35.769531 63.46875 36.519531 63.46875 37.4375 C 63.46875 38.359375 62.71875 39.105469 61.800781 39.105469 C 60.878906 39.105469 60.132812 38.359375 60.132812 37.4375 C 60.132812 36.519531 60.878906 35.769531 61.800781 35.769531 Z M 37.699219 54.65625 C 28.207031 54.65625 20.484375 46.933594 20.484375 37.4375 C 20.484375 27.945312 28.207031 20.21875 37.699219 20.21875 C 47.195312 20.21875 54.917969 27.945312 54.917969 37.4375 C 54.917969 46.933594 47.195312 54.65625 37.699219 54.65625 Z M 42.6875 32.515625 L 42.6875 29.355469 C 42.6875 26.605469 40.449219 24.367188 37.699219 24.367188 C 34.953125 24.367188 32.714844 26.605469 32.714844 29.355469 L 32.714844 30.519531 C 32.714844 30.75 32.90625 30.941406 33.136719 30.941406 L 35.167969 30.941406 C 35.277344 30.941406 35.386719 30.894531 35.464844 30.816406 C 35.546875 30.738281 35.589844 30.628906 35.589844 30.519531 L 35.589844 29.464844 C 35.589844 28.300781 36.535156 27.351562 37.699219 27.351562 C 38.867188 27.351562 39.8125 28.300781 39.8125 29.464844 L 39.8125 32.515625 L 32.726562 32.515625 C 30.867188 32.515625 29.351562 34.03125 29.351562 35.890625 L 29.351562 45.019531 C 29.351562 46.878906 30.867188 48.394531 32.726562 48.394531 L 42.675781 48.394531 C 44.535156 48.394531 46.050781 46.878906 46.050781 45.019531 L 46.050781 35.890625 C 46.050781 34.035156 44.542969 32.523438 42.6875 32.515625 Z M 37.699219 26.507812 C 36.070312 26.507812 34.746094 27.832031 34.746094 29.464844 L 34.746094 30.097656 L 33.558594 30.097656 L 33.558594 29.355469 C 33.558594 27.070312 35.417969 25.210938 37.699219 25.210938 C 39.984375 25.210938 41.84375 27.070312 41.84375 29.355469 L 41.84375 32.515625 L 40.65625 32.515625 L 40.65625 29.464844 C 40.65625 27.832031 39.332031 26.507812 37.699219 26.507812 Z M 45.207031 45.019531 C 45.207031 46.414062 44.070312 47.550781 42.675781 47.550781 L 32.726562 47.550781 C 31.332031 47.550781 30.195312 46.414062 30.195312 45.019531 L 30.195312 35.890625 C 30.195312 34.496094 31.332031 33.359375 32.726562 33.359375 L 42.675781 33.359375 C 44.070312 33.359375 45.207031 34.496094 45.207031 35.890625 Z M 37.699219 35.589844 C 36.402344 35.589844 35.34375 36.644531 35.34375 37.945312 C 35.34375 38.6875 35.683594 39.371094 36.269531 39.816406 L 36.269531 42.230469 C 36.269531 43.019531 36.910156 43.660156 37.699219 43.660156 C 38.492188 43.660156 39.132812 43.019531 39.132812 42.230469 L 39.132812 39.816406 C 39.71875 39.371094 40.058594 38.6875 40.058594 37.945312 C 40.058594 36.644531 39 35.589844 37.699219 35.589844 Z M 38.492188 39.234375 C 38.367188 39.3125 38.289062 39.449219 38.289062 39.59375 L 38.289062 42.230469 C 38.289062 42.554688 38.027344 42.816406 37.703125 42.816406 C 37.375 42.816406 37.113281 42.554688 37.113281 42.230469 L 37.113281 39.59375 C 37.113281 39.449219 37.035156 39.3125 36.910156 39.234375 C 36.457031 38.957031 36.1875 38.472656 36.1875 37.945312 C 36.1875 37.113281 36.867188 36.433594 37.703125 36.433594 C 38.535156 36.433594 39.214844 37.113281 39.214844 37.945312 C 39.214844 38.472656 38.945312 38.957031 38.492188 39.234375 Z M 38.492188 39.234375 " fill-opacity="1" fill-rule="nonzero"/></g><g fill="#ffffff" fill-opacity="1"><g transform="translate(72.676436, 44.63819)"><g><path d="M 5.257812 0 L 5.257812 -5.777344 L 11.613281 -5.777344 L 11.613281 -8.835938 L 5.257812 -8.835938 L 5.257812 -12.433594 L 12.664062 -12.433594 L 12.664062 -15.6875 L 1.601562 -15.6875 L 1.601562 0 Z M 5.257812 0 "/></g></g></g><g fill="#ffffff" fill-opacity="1"><g transform="translate(86.511629, 44.63819)"><g><path d="M 6.183594 0.390625 C 7.925781 0.390625 9.332031 -0.300781 10.058594 -1.511719 L 10.058594 0 L 13.4375 0 L 13.4375 -11.949219 L 10.070312 -11.949219 L 10.070312 -10.414062 C 9.34375 -11.636719 7.925781 -12.332031 6.160156 -12.332031 C 3.011719 -12.332031 0.679688 -9.457031 0.679688 -5.976562 C 0.679688 -2.46875 2.976562 0.390625 6.183594 0.390625 Z M 7.046875 -2.882812 C 5.535156 -2.882812 4.199219 -3.945312 4.199219 -5.976562 C 4.199219 -7.902344 5.492188 -9.066406 7.058594 -9.066406 C 8.652344 -9.066406 9.917969 -7.695312 9.917969 -5.976562 C 9.917969 -4.222656 8.675781 -2.882812 7.046875 -2.882812 Z M 7.046875 -2.882812 "/></g></g></g><g fill="#ffffff" fill-opacity="1"><g transform="translate(101.834, 44.63819)"><g><path d="M 6.933594 0.378906 C 10.207031 0.378906 12.503906 -1.765625 13.070312 -4.707031 L 9.46875 -4.707031 C 9.042969 -3.367188 8.0625 -2.882812 6.945312 -2.882812 C 5.535156 -2.882812 4.199219 -3.980469 4.199219 -5.976562 C 4.199219 -7.957031 5.523438 -9.042969 6.945312 -9.042969 C 8.0625 -9.042969 9.03125 -8.570312 9.46875 -7.441406 L 13.070312 -7.441406 C 12.457031 -10.207031 10.207031 -12.332031 6.933594 -12.332031 C 3.242188 -12.332031 0.679688 -9.433594 0.679688 -5.976562 C 0.679688 -2.492188 3.242188 0.378906 6.933594 0.378906 Z M 6.933594 0.378906 "/></g></g></g><g fill="#ffffff" fill-opacity="1"><g transform="translate(115.922819, 44.63819)"><g><path d="M 13.113281 -6.066406 C 13.113281 -9.46875 10.726562 -12.332031 6.988281 -12.332031 C 3.253906 -12.332031 0.679688 -9.457031 0.679688 -5.976562 C 0.679688 -2.492188 3.265625 0.378906 6.988281 0.378906 C 10.195312 0.378906 12.332031 -1.777344 12.859375 -3.898438 L 9.054688 -3.898438 C 8.789062 -3.207031 8.167969 -2.675781 6.921875 -2.675781 C 5.546875 -2.675781 4.519531 -3.496094 4.234375 -5.085938 L 13.046875 -5.085938 C 13.089844 -5.457031 13.113281 -5.6875 13.113281 -6.066406 Z M 4.371094 -7.484375 C 4.808594 -8.871094 5.90625 -9.410156 7 -9.410156 C 8.28125 -9.410156 9.367188 -8.59375 9.480469 -7.484375 Z M 4.371094 -7.484375 "/></g></g></g><g fill="#ffffff" fill-opacity="1"><g transform="translate(130.103869, 44.63819)"><g/></g></g><g fill="#ffffff" fill-opacity="1"><g transform="translate(136.295664, 44.63819)"><g><path d="M 8.984375 0.359375 C 12.320312 0.359375 16.078125 -1.613281 16.746094 -6.183594 L 13.011719 -6.183594 C 12.46875 -3.886719 10.820312 -2.988281 8.882812 -2.988281 C 6.34375 -2.988281 4.257812 -4.742188 4.257812 -7.855469 C 4.257812 -10.886719 6.34375 -12.734375 8.882812 -12.734375 C 10.832031 -12.734375 12.46875 -11.824219 13.023438 -9.527344 L 16.746094 -9.527344 C 16.078125 -14.105469 12.285156 -16.078125 8.984375 -16.078125 C 4.335938 -16.078125 0.601562 -12.433594 0.601562 -7.867188 C 0.601562 -3.308594 4.335938 0.359375 8.984375 0.359375 Z M 8.984375 0.359375 "/></g></g></g><g fill="#ffffff" fill-opacity="1"><g transform="translate(154.165836, 44.63819)"><g><path d="M 4.925781 0 L 4.925781 -5.929688 C 4.925781 -7.820312 6.160156 -9.078125 7.507812 -9.078125 C 8.835938 -9.078125 9.734375 -8.316406 9.734375 -6.332031 L 9.734375 0 L 13.289062 0 L 13.289062 -6.414062 C 13.289062 -10.105469 11.765625 -12.332031 8.511719 -12.332031 C 6.863281 -12.332031 5.617188 -11.683594 4.84375 -10.601562 L 4.925781 -11.984375 L 4.925781 -16.253906 L 1.371094 -16.253906 L 1.371094 0 Z M 4.925781 0 "/></g></g></g><g fill="#ffffff" fill-opacity="1"><g transform="translate(169.303752, 44.63819)"><g><path d="M 13.113281 -6.066406 C 13.113281 -9.46875 10.726562 -12.332031 6.988281 -12.332031 C 3.253906 -12.332031 0.679688 -9.457031 0.679688 -5.976562 C 0.679688 -2.492188 3.265625 0.378906 6.988281 0.378906 C 10.195312 0.378906 12.332031 -1.777344 12.859375 -3.898438 L 9.054688 -3.898438 C 8.789062 -3.207031 8.167969 -2.675781 6.921875 -2.675781 C 5.546875 -2.675781 4.519531 -3.496094 4.234375 -5.085938 L 13.046875 -5.085938 C 13.089844 -5.457031 13.113281 -5.6875 13.113281 -6.066406 Z M 4.371094 -7.484375 C 4.808594 -8.871094 5.90625 -9.410156 7 -9.410156 C 8.28125 -9.410156 9.367188 -8.59375 9.480469 -7.484375 Z M 4.371094 -7.484375 "/></g></g></g><g fill="#ffffff" fill-opacity="1"><g transform="translate(183.484797, 44.63819)"><g><path d="M 6.933594 0.378906 C 10.207031 0.378906 12.503906 -1.765625 13.070312 -4.707031 L 9.46875 -4.707031 C 9.042969 -3.367188 8.0625 -2.882812 6.945312 -2.882812 C 5.535156 -2.882812 4.199219 -3.980469 4.199219 -5.976562 C 4.199219 -7.957031 5.523438 -9.042969 6.945312 -9.042969 C 8.0625 -9.042969 9.03125 -8.570312 9.46875 -7.441406 L 13.070312 -7.441406 C 12.457031 -10.207031 10.207031 -12.332031 6.933594 -12.332031 C 3.242188 -12.332031 0.679688 -9.433594 0.679688 -5.976562 C 0.679688 -2.492188 3.242188 0.378906 6.933594 0.378906 Z M 6.933594 0.378906 "/></g></g></g><g fill="#ffffff" fill-opacity="1"><g transform="translate(197.573613, 44.63819)"><g><path d="M 13.011719 0 L 9.054688 -7.289062 L 12.59375 -11.949219 L 8.28125 -11.949219 L 4.925781 -7.035156 L 4.925781 -16.253906 L 1.371094 -16.253906 L 1.371094 0 L 4.925781 0 L 4.925781 -3.289062 L 6.480469 -4.949219 L 9.042969 0 Z M 13.011719 0 "/></g></g></g></svg>