<svg xmlns="http://www.w3.org/2000/svg" xmlns:xlink="http://www.w3.org/1999/xlink" width="300" zoomAndPan="magnify" viewBox="0 0 224.87999 74.999997" height="100" preserveAspectRatio="xMidYMid meet" version="1.0"><defs><g/><clipPath id="c171239644"><path d="M 13.046875 7.515625 L 66.269531 7.515625 L 66.269531 60.738281 L 13.046875 60.738281 Z M 13.046875 7.515625 " clip-rule="nonzero"/></clipPath></defs><g clip-path="url(#c171239644)"><path fill="#007e7a" d="M 39.65625 18.933594 C 31.28125 18.933594 24.464844 25.75 24.464844 34.125 C 24.464844 42.503906 31.28125 49.320312 39.65625 49.320312 C 48.035156 49.320312 54.851562 42.503906 54.851562 34.125 C 54.851562 25.75 48.035156 18.933594 39.65625 18.933594 Z M 39.65625 48.476562 C 31.746094 48.476562 25.308594 42.039062 25.308594 34.125 C 25.308594 26.214844 31.746094 19.777344 39.65625 19.777344 C 47.570312 19.777344 54.007812 26.214844 54.007812 34.125 C 54.007812 42.039062 47.570312 48.476562 39.65625 48.476562 Z M 57.027344 29.164062 L 65.847656 29.164062 C 66.078125 29.164062 66.269531 28.972656 66.269531 28.742188 C 66.269531 28.507812 66.078125 28.316406 65.847656 28.316406 L 56.761719 28.316406 C 56.554688 27.703125 56.3125 27.105469 56.039062 26.523438 L 61.152344 26.523438 C 61.386719 26.523438 61.578125 26.335938 61.578125 26.101562 L 61.578125 22.5625 C 62.761719 22.363281 63.667969 21.328125 63.667969 20.085938 C 63.667969 18.703125 62.539062 17.574219 61.152344 17.574219 C 59.769531 17.574219 58.640625 18.703125 58.640625 20.085938 C 58.640625 21.328125 59.546875 22.363281 60.730469 22.5625 L 60.730469 25.679688 L 55.621094 25.679688 C 52.644531 20.082031 46.8125 16.222656 40.082031 16.070312 L 40.082031 11.546875 L 41.851562 10.667969 C 42.136719 11.746094 43.117188 12.539062 44.28125 12.539062 C 45.667969 12.539062 46.792969 11.414062 46.792969 10.027344 C 46.792969 8.644531 45.667969 7.515625 44.28125 7.515625 C 42.988281 7.515625 41.917969 8.5 41.785156 9.757812 L 39.46875 10.910156 C 39.328125 10.980469 39.234375 11.125 39.234375 11.285156 L 39.234375 16.070312 C 38.800781 16.078125 38.371094 16.105469 37.945312 16.144531 L 37.945312 7.9375 C 37.945312 7.707031 37.757812 7.515625 37.523438 7.515625 C 37.289062 7.515625 37.101562 7.707031 37.101562 7.9375 L 37.101562 16.246094 C 31.285156 17.074219 26.351562 20.683594 23.695312 25.679688 L 18.585938 25.679688 L 18.585938 22.5625 C 19.769531 22.363281 20.675781 21.328125 20.675781 20.085938 C 20.675781 18.703125 19.546875 17.574219 18.164062 17.574219 C 16.777344 17.574219 15.648438 18.703125 15.648438 20.085938 C 15.648438 21.328125 16.554688 22.363281 17.738281 22.5625 L 17.738281 26.101562 C 17.738281 26.335938 17.929688 26.523438 18.164062 26.523438 L 23.277344 26.523438 C 23.003906 27.105469 22.761719 27.703125 22.554688 28.316406 L 13.46875 28.316406 C 13.238281 28.316406 13.046875 28.507812 13.046875 28.742188 C 13.046875 28.972656 13.238281 29.164062 13.46875 29.164062 L 22.289062 29.164062 C 21.875 30.609375 21.636719 32.132812 21.601562 33.703125 L 18.035156 33.703125 C 17.835938 32.519531 16.800781 31.613281 15.558594 31.613281 C 14.175781 31.613281 13.046875 32.742188 13.046875 34.125 C 13.046875 35.511719 14.175781 36.640625 15.558594 36.640625 C 16.800781 36.640625 17.835938 35.734375 18.035156 34.550781 L 21.601562 34.550781 C 21.636719 36.121094 21.875 37.640625 22.289062 39.089844 L 13.46875 39.089844 C 13.238281 39.089844 13.046875 39.28125 13.046875 39.511719 C 13.046875 39.746094 13.238281 39.933594 13.46875 39.933594 L 22.554688 39.933594 C 22.761719 40.550781 23.003906 41.148438 23.277344 41.730469 L 18.164062 41.730469 C 17.929688 41.730469 17.738281 41.917969 17.738281 42.152344 L 17.738281 45.691406 C 16.554688 45.890625 15.648438 46.925781 15.648438 48.167969 C 15.648438 49.550781 16.777344 50.679688 18.164062 50.679688 C 19.546875 50.679688 20.675781 49.550781 20.675781 48.167969 C 20.675781 46.925781 19.769531 45.890625 18.585938 45.691406 L 18.585938 42.574219 L 23.695312 42.574219 C 26.671875 48.171875 32.503906 52.03125 39.234375 52.183594 L 39.234375 56.707031 L 37.464844 57.585938 C 37.179688 56.507812 36.199219 55.714844 35.035156 55.714844 C 33.648438 55.714844 32.523438 56.839844 32.523438 58.226562 C 32.523438 59.609375 33.648438 60.738281 35.035156 60.738281 C 36.328125 60.738281 37.398438 59.753906 37.53125 58.496094 L 39.847656 57.34375 C 39.988281 57.273438 40.082031 57.128906 40.082031 56.96875 L 40.082031 52.183594 C 40.515625 52.175781 40.945312 52.148438 41.371094 52.109375 L 41.371094 60.316406 C 41.371094 60.546875 41.558594 60.738281 41.792969 60.738281 C 42.027344 60.738281 42.214844 60.546875 42.214844 60.316406 L 42.214844 52.007812 C 48.03125 51.179688 52.964844 47.570312 55.621094 42.574219 L 60.730469 42.574219 L 60.730469 45.691406 C 59.546875 45.890625 58.640625 46.925781 58.640625 48.167969 C 58.640625 49.550781 59.769531 50.679688 61.152344 50.679688 C 62.539062 50.679688 63.667969 49.550781 63.667969 48.167969 C 63.667969 46.925781 62.761719 45.890625 61.578125 45.691406 L 61.578125 42.152344 C 61.578125 41.917969 61.386719 41.730469 61.152344 41.730469 L 56.039062 41.730469 C 56.3125 41.148438 56.554688 40.550781 56.761719 39.933594 L 65.847656 39.933594 C 66.078125 39.933594 66.269531 39.746094 66.269531 39.511719 C 66.269531 39.28125 66.078125 39.089844 65.847656 39.089844 L 57.027344 39.089844 C 57.441406 37.640625 57.679688 36.121094 57.714844 34.550781 L 61.28125 34.550781 C 61.480469 35.734375 62.515625 36.640625 63.757812 36.640625 C 65.140625 36.640625 66.269531 35.511719 66.269531 34.125 C 66.269531 32.742188 65.140625 31.613281 63.757812 31.613281 C 62.515625 31.613281 61.480469 32.519531 61.28125 33.703125 L 57.714844 33.703125 C 57.679688 32.132812 57.441406 30.609375 57.027344 29.164062 Z M 59.488281 20.085938 C 59.488281 19.167969 60.234375 18.417969 61.152344 18.417969 C 62.074219 18.417969 62.820312 19.167969 62.820312 20.085938 C 62.820312 21.007812 62.074219 21.753906 61.152344 21.753906 C 60.234375 21.753906 59.488281 21.007812 59.488281 20.085938 Z M 44.28125 8.359375 C 45.203125 8.359375 45.949219 9.109375 45.949219 10.027344 C 45.949219 10.949219 45.203125 11.695312 44.28125 11.695312 C 43.363281 11.695312 42.613281 10.949219 42.613281 10.027344 C 42.613281 9.109375 43.363281 8.359375 44.28125 8.359375 Z M 16.496094 20.085938 C 16.496094 19.167969 17.242188 18.417969 18.164062 18.417969 C 19.082031 18.417969 19.828125 19.167969 19.828125 20.085938 C 19.828125 21.007812 19.082031 21.753906 18.164062 21.753906 C 17.242188 21.753906 16.496094 21.007812 16.496094 20.085938 Z M 15.558594 35.792969 C 14.640625 35.792969 13.890625 35.046875 13.890625 34.125 C 13.890625 33.207031 14.640625 32.460938 15.558594 32.460938 C 16.480469 32.460938 17.226562 33.207031 17.226562 34.125 C 17.226562 35.046875 16.480469 35.792969 15.558594 35.792969 Z M 19.828125 48.167969 C 19.828125 49.085938 19.082031 49.835938 18.164062 49.835938 C 17.242188 49.835938 16.496094 49.085938 16.496094 48.167969 C 16.496094 47.246094 17.242188 46.5 18.164062 46.5 C 19.082031 46.5 19.828125 47.246094 19.828125 48.167969 Z M 35.035156 59.894531 C 34.113281 59.894531 33.367188 59.144531 33.367188 58.226562 C 33.367188 57.304688 34.113281 56.558594 35.035156 56.558594 C 35.953125 56.558594 36.703125 57.304688 36.703125 58.226562 C 36.703125 59.144531 35.953125 59.894531 35.035156 59.894531 Z M 62.820312 48.167969 C 62.820312 49.085938 62.074219 49.835938 61.152344 49.835938 C 60.234375 49.835938 59.488281 49.085938 59.488281 48.167969 C 59.488281 47.246094 60.234375 46.5 61.152344 46.5 C 62.074219 46.5 62.820312 47.246094 62.820312 48.167969 Z M 63.757812 32.460938 C 64.675781 32.460938 65.425781 33.207031 65.425781 34.125 C 65.425781 35.046875 64.675781 35.792969 63.757812 35.792969 C 62.835938 35.792969 62.089844 35.046875 62.089844 34.125 C 62.089844 33.207031 62.835938 32.460938 63.757812 32.460938 Z M 39.65625 51.34375 C 30.164062 51.34375 22.441406 43.621094 22.441406 34.125 C 22.441406 24.632812 30.164062 16.910156 39.65625 16.910156 C 49.152344 16.910156 56.875 24.632812 56.875 34.125 C 56.875 43.621094 49.152344 51.34375 39.65625 51.34375 Z M 44.644531 29.203125 L 44.644531 26.042969 C 44.644531 23.292969 42.40625 21.054688 39.65625 21.054688 C 36.910156 21.054688 34.671875 23.292969 34.671875 26.042969 L 34.671875 27.207031 C 34.671875 27.441406 34.863281 27.628906 35.09375 27.628906 L 37.125 27.628906 C 37.238281 27.628906 37.34375 27.585938 37.421875 27.503906 C 37.503906 27.425781 37.546875 27.320312 37.546875 27.207031 L 37.546875 26.152344 C 37.546875 24.988281 38.492188 24.039062 39.65625 24.039062 C 40.824219 24.039062 41.769531 24.988281 41.769531 26.152344 L 41.769531 29.203125 L 34.683594 29.203125 C 32.824219 29.203125 31.308594 30.71875 31.308594 32.582031 L 31.308594 41.707031 C 31.308594 43.570312 32.824219 45.082031 34.683594 45.082031 L 44.632812 45.082031 C 46.492188 45.082031 48.007812 43.570312 48.007812 41.707031 L 48.007812 32.582031 C 48.007812 30.722656 46.5 29.210938 44.644531 29.203125 Z M 39.65625 23.195312 C 38.027344 23.195312 36.703125 24.523438 36.703125 26.152344 L 36.703125 26.785156 L 35.515625 26.785156 L 35.515625 26.042969 C 35.515625 23.757812 37.375 21.902344 39.65625 21.902344 C 41.941406 21.902344 43.800781 23.757812 43.800781 26.042969 L 43.800781 29.203125 L 42.613281 29.203125 L 42.613281 26.152344 C 42.613281 24.523438 41.289062 23.195312 39.65625 23.195312 Z M 47.164062 41.707031 C 47.164062 43.101562 46.027344 44.238281 44.632812 44.238281 L 34.683594 44.238281 C 33.289062 44.238281 32.152344 43.101562 32.152344 41.707031 L 32.152344 32.582031 C 32.152344 31.183594 33.289062 30.050781 34.683594 30.050781 L 44.632812 30.050781 C 46.027344 30.050781 47.164062 31.183594 47.164062 32.582031 Z M 39.65625 32.277344 C 38.359375 32.277344 37.300781 33.335938 37.300781 34.632812 C 37.300781 35.378906 37.640625 36.058594 38.226562 36.503906 L 38.226562 38.917969 C 38.226562 39.707031 38.867188 40.351562 39.65625 40.351562 C 40.449219 40.351562 41.089844 39.707031 41.089844 38.917969 L 41.089844 36.503906 C 41.675781 36.058594 42.015625 35.378906 42.015625 34.632812 C 42.015625 33.335938 40.957031 32.277344 39.65625 32.277344 Z M 40.449219 35.921875 C 40.324219 36 40.246094 36.136719 40.246094 36.28125 L 40.246094 38.917969 C 40.246094 39.242188 39.984375 39.503906 39.660156 39.503906 C 39.335938 39.503906 39.070312 39.242188 39.070312 38.917969 L 39.070312 36.28125 C 39.070312 36.136719 38.992188 36 38.867188 35.921875 C 38.414062 35.644531 38.144531 35.164062 38.144531 34.632812 C 38.144531 33.800781 38.824219 33.121094 39.660156 33.121094 C 40.492188 33.121094 41.171875 33.800781 41.171875 34.632812 C 41.171875 35.164062 40.902344 35.644531 40.449219 35.921875 Z M 40.449219 35.921875 " fill-opacity="1" fill-rule="nonzero"/></g><g fill="#007e7a" fill-opacity="1"><g transform="translate(74.633552, 41.32673)"><g><path d="M 5.257812 0 L 5.257812 -5.777344 L 11.613281 -5.777344 L 11.613281 -8.835938 L 5.257812 -8.835938 L 5.257812 -12.433594 L 12.664062 -12.433594 L 12.664062 -15.6875 L 1.601562 -15.6875 L 1.601562 0 Z M 5.257812 0 "/></g></g></g><g fill="#007e7a" fill-opacity="1"><g transform="translate(88.468745, 41.32673)"><g><path d="M 6.183594 0.390625 C 7.925781 0.390625 9.332031 -0.300781 10.058594 -1.511719 L 10.058594 0 L 13.4375 0 L 13.4375 -11.949219 L 10.070312 -11.949219 L 10.070312 -10.414062 C 9.34375 -11.636719 7.925781 -12.332031 6.160156 -12.332031 C 3.011719 -12.332031 0.679688 -9.457031 0.679688 -5.976562 C 0.679688 -2.46875 2.976562 0.390625 6.183594 0.390625 Z M 7.046875 -2.882812 C 5.535156 -2.882812 4.199219 -3.945312 4.199219 -5.976562 C 4.199219 -7.902344 5.492188 -9.066406 7.058594 -9.066406 C 8.652344 -9.066406 9.917969 -7.695312 9.917969 -5.976562 C 9.917969 -4.222656 8.675781 -2.882812 7.046875 -2.882812 Z M 7.046875 -2.882812 "/></g></g></g><g fill="#007e7a" fill-opacity="1"><g transform="translate(103.791115, 41.32673)"><g><path d="M 6.933594 0.378906 C 10.207031 0.378906 12.503906 -1.765625 13.070312 -4.707031 L 9.46875 -4.707031 C 9.042969 -3.367188 8.0625 -2.882812 6.945312 -2.882812 C 5.535156 -2.882812 4.199219 -3.980469 4.199219 -5.976562 C 4.199219 -7.957031 5.523438 -9.042969 6.945312 -9.042969 C 8.0625 -9.042969 9.03125 -8.570312 9.46875 -7.441406 L 13.070312 -7.441406 C 12.457031 -10.207031 10.207031 -12.332031 6.933594 -12.332031 C 3.242188 -12.332031 0.679688 -9.433594 0.679688 -5.976562 C 0.679688 -2.492188 3.242188 0.378906 6.933594 0.378906 Z M 6.933594 0.378906 "/></g></g></g><g fill="#007e7a" fill-opacity="1"><g transform="translate(117.879934, 41.32673)"><g><path d="M 13.113281 -6.066406 C 13.113281 -9.46875 10.726562 -12.332031 6.988281 -12.332031 C 3.253906 -12.332031 0.679688 -9.457031 0.679688 -5.976562 C 0.679688 -2.492188 3.265625 0.378906 6.988281 0.378906 C 10.195312 0.378906 12.332031 -1.777344 12.859375 -3.898438 L 9.054688 -3.898438 C 8.789062 -3.207031 8.167969 -2.675781 6.921875 -2.675781 C 5.546875 -2.675781 4.519531 -3.496094 4.234375 -5.085938 L 13.046875 -5.085938 C 13.089844 -5.457031 13.113281 -5.6875 13.113281 -6.066406 Z M 4.371094 -7.484375 C 4.808594 -8.871094 5.90625 -9.410156 7 -9.410156 C 8.28125 -9.410156 9.367188 -8.59375 9.480469 -7.484375 Z M 4.371094 -7.484375 "/></g></g></g><g fill="#007e7a" fill-opacity="1"><g transform="translate(132.060984, 41.32673)"><g/></g></g><g fill="#007e7a" fill-opacity="1"><g transform="translate(138.252779, 41.32673)"><g><path d="M 8.984375 0.359375 C 12.320312 0.359375 16.078125 -1.613281 16.746094 -6.183594 L 13.011719 -6.183594 C 12.46875 -3.886719 10.820312 -2.988281 8.882812 -2.988281 C 6.34375 -2.988281 4.257812 -4.742188 4.257812 -7.855469 C 4.257812 -10.886719 6.34375 -12.734375 8.882812 -12.734375 C 10.832031 -12.734375 12.46875 -11.824219 13.023438 -9.527344 L 16.746094 -9.527344 C 16.078125 -14.105469 12.285156 -16.078125 8.984375 -16.078125 C 4.335938 -16.078125 0.601562 -12.433594 0.601562 -7.867188 C 0.601562 -3.308594 4.335938 0.359375 8.984375 0.359375 Z M 8.984375 0.359375 "/></g></g></g><g fill="#007e7a" fill-opacity="1"><g transform="translate(156.122952, 41.32673)"><g><path d="M 4.925781 0 L 4.925781 -5.929688 C 4.925781 -7.820312 6.160156 -9.078125 7.507812 -9.078125 C 8.835938 -9.078125 9.734375 -8.316406 9.734375 -6.332031 L 9.734375 0 L 13.289062 0 L 13.289062 -6.414062 C 13.289062 -10.105469 11.765625 -12.332031 8.511719 -12.332031 C 6.863281 -12.332031 5.617188 -11.683594 4.84375 -10.601562 L 4.925781 -11.984375 L 4.925781 -16.253906 L 1.371094 -16.253906 L 1.371094 0 Z M 4.925781 0 "/></g></g></g><g fill="#007e7a" fill-opacity="1"><g transform="translate(171.260868, 41.32673)"><g><path d="M 13.113281 -6.066406 C 13.113281 -9.46875 10.726562 -12.332031 6.988281 -12.332031 C 3.253906 -12.332031 0.679688 -9.457031 0.679688 -5.976562 C 0.679688 -2.492188 3.265625 0.378906 6.988281 0.378906 C 10.195312 0.378906 12.332031 -1.777344 12.859375 -3.898438 L 9.054688 -3.898438 C 8.789062 -3.207031 8.167969 -2.675781 6.921875 -2.675781 C 5.546875 -2.675781 4.519531 -3.496094 4.234375 -5.085938 L 13.046875 -5.085938 C 13.089844 -5.457031 13.113281 -5.6875 13.113281 -6.066406 Z M 4.371094 -7.484375 C 4.808594 -8.871094 5.90625 -9.410156 7 -9.410156 C 8.28125 -9.410156 9.367188 -8.59375 9.480469 -7.484375 Z M 4.371094 -7.484375 "/></g></g></g><g fill="#007e7a" fill-opacity="1"><g transform="translate(185.441912, 41.32673)"><g><path d="M 6.933594 0.378906 C 10.207031 0.378906 12.503906 -1.765625 13.070312 -4.707031 L 9.46875 -4.707031 C 9.042969 -3.367188 8.0625 -2.882812 6.945312 -2.882812 C 5.535156 -2.882812 4.199219 -3.980469 4.199219 -5.976562 C 4.199219 -7.957031 5.523438 -9.042969 6.945312 -9.042969 C 8.0625 -9.042969 9.03125 -8.570312 9.46875 -7.441406 L 13.070312 -7.441406 C 12.457031 -10.207031 10.207031 -12.332031 6.933594 -12.332031 C 3.242188 -12.332031 0.679688 -9.433594 0.679688 -5.976562 C 0.679688 -2.492188 3.242188 0.378906 6.933594 0.378906 Z M 6.933594 0.378906 "/></g></g></g><g fill="#007e7a" fill-opacity="1"><g transform="translate(199.530728, 41.32673)"><g><path d="M 13.011719 0 L 9.054688 -7.289062 L 12.59375 -11.949219 L 8.28125 -11.949219 L 4.925781 -7.035156 L 4.925781 -16.253906 L 1.371094 -16.253906 L 1.371094 0 L 4.925781 0 L 4.925781 -3.289062 L 6.480469 -4.949219 L 9.042969 0 Z M 13.011719 0 "/></g></g></g></svg>