<svg xmlns="http://www.w3.org/2000/svg" xmlns:xlink="http://www.w3.org/1999/xlink" width="150" zoomAndPan="magnify" viewBox="0 0 112.5 37.5" height="50" preserveAspectRatio="xMidYMid meet" version="1.0"><defs><g/><clipPath id="b89ce5447e"><path d="M 4.210938 5.917969 L 31.71875 5.917969 L 31.71875 33.425781 L 4.210938 33.425781 Z M 4.210938 5.917969 " clip-rule="nonzero"/></clipPath></defs><g clip-path="url(#b89ce5447e)"><path fill="#007e7a" d="M 17.964844 11.820312 C 13.632812 11.820312 10.113281 15.339844 10.113281 19.671875 C 10.113281 24 13.632812 27.523438 17.964844 27.523438 C 22.292969 27.523438 25.816406 24 25.816406 19.671875 C 25.816406 15.339844 22.292969 11.820312 17.964844 11.820312 Z M 17.964844 27.085938 C 13.875 27.085938 10.546875 23.761719 10.546875 19.671875 C 10.546875 15.582031 13.875 12.253906 17.964844 12.253906 C 22.054688 12.253906 25.378906 15.582031 25.378906 19.671875 C 25.378906 23.761719 22.054688 27.085938 17.964844 27.085938 Z M 26.941406 17.105469 L 31.5 17.105469 C 31.621094 17.105469 31.71875 17.007812 31.71875 16.886719 C 31.71875 16.765625 31.621094 16.667969 31.5 16.667969 L 26.804688 16.667969 C 26.695312 16.351562 26.570312 16.042969 26.429688 15.742188 L 29.074219 15.742188 C 29.195312 15.742188 29.292969 15.644531 29.292969 15.523438 L 29.292969 13.695312 C 29.902344 13.589844 30.371094 13.058594 30.371094 12.414062 C 30.371094 11.699219 29.789062 11.117188 29.074219 11.117188 C 28.359375 11.117188 27.773438 11.699219 27.773438 12.414062 C 27.773438 13.058594 28.242188 13.589844 28.855469 13.695312 L 28.855469 15.304688 L 26.214844 15.304688 C 24.675781 12.414062 21.660156 10.417969 18.183594 10.339844 L 18.183594 8.003906 L 19.097656 7.546875 C 19.246094 8.105469 19.75 8.515625 20.355469 8.515625 C 21.070312 8.515625 21.652344 7.933594 21.652344 7.21875 C 21.652344 6.5 21.070312 5.917969 20.355469 5.917969 C 19.683594 5.917969 19.132812 6.425781 19.0625 7.078125 L 17.867188 7.671875 C 17.792969 7.707031 17.746094 7.785156 17.746094 7.867188 L 17.746094 10.339844 C 17.519531 10.34375 17.300781 10.359375 17.078125 10.378906 L 17.078125 6.136719 C 17.078125 6.015625 16.980469 5.917969 16.859375 5.917969 C 16.742188 5.917969 16.640625 6.015625 16.640625 6.136719 L 16.640625 10.429688 C 13.636719 10.859375 11.085938 12.722656 9.714844 15.304688 L 7.074219 15.304688 L 7.074219 13.695312 C 7.683594 13.589844 8.152344 13.058594 8.152344 12.414062 C 8.152344 11.699219 7.570312 11.117188 6.855469 11.117188 C 6.136719 11.117188 5.554688 11.699219 5.554688 12.414062 C 5.554688 13.058594 6.023438 13.589844 6.636719 13.695312 L 6.636719 15.523438 C 6.636719 15.644531 6.734375 15.742188 6.855469 15.742188 L 9.496094 15.742188 C 9.355469 16.042969 9.230469 16.351562 9.125 16.667969 L 4.429688 16.667969 C 4.308594 16.667969 4.210938 16.765625 4.210938 16.886719 C 4.210938 17.007812 4.308594 17.105469 4.429688 17.105469 L 8.988281 17.105469 C 8.773438 17.855469 8.648438 18.640625 8.632812 19.453125 L 6.789062 19.453125 C 6.683594 18.839844 6.152344 18.375 5.507812 18.375 C 4.792969 18.375 4.210938 18.957031 4.210938 19.671875 C 4.210938 20.386719 4.792969 20.96875 5.507812 20.96875 C 6.152344 20.96875 6.683594 20.503906 6.789062 19.890625 L 8.632812 19.890625 C 8.648438 20.703125 8.773438 21.488281 8.988281 22.238281 L 4.429688 22.238281 C 4.308594 22.238281 4.210938 22.335938 4.210938 22.457031 C 4.210938 22.574219 4.308594 22.671875 4.429688 22.671875 L 9.125 22.671875 C 9.230469 22.992188 9.355469 23.300781 9.496094 23.601562 L 6.855469 23.601562 C 6.734375 23.601562 6.636719 23.699219 6.636719 23.820312 L 6.636719 25.648438 C 6.023438 25.753906 5.554688 26.285156 5.554688 26.929688 C 5.554688 27.644531 6.136719 28.226562 6.855469 28.226562 C 7.570312 28.226562 8.152344 27.644531 8.152344 26.929688 C 8.152344 26.285156 7.683594 25.753906 7.074219 25.648438 L 7.074219 24.039062 L 9.714844 24.039062 C 11.25 26.929688 14.265625 28.925781 17.746094 29.003906 L 17.746094 31.339844 L 16.828125 31.796875 C 16.683594 31.238281 16.175781 30.828125 15.574219 30.828125 C 14.859375 30.828125 14.277344 31.410156 14.277344 32.125 C 14.277344 32.84375 14.859375 33.425781 15.574219 33.425781 C 16.242188 33.425781 16.796875 32.917969 16.863281 32.265625 L 18.0625 31.671875 C 18.136719 31.632812 18.183594 31.558594 18.183594 31.476562 L 18.183594 29.003906 C 18.40625 29 18.628906 28.984375 18.847656 28.964844 L 18.847656 33.207031 C 18.847656 33.328125 18.945312 33.425781 19.066406 33.425781 C 19.1875 33.425781 19.285156 33.328125 19.285156 33.207031 L 19.285156 28.914062 C 22.292969 28.484375 24.839844 26.621094 26.214844 24.039062 L 28.855469 24.039062 L 28.855469 25.648438 C 28.242188 25.753906 27.773438 26.285156 27.773438 26.929688 C 27.773438 27.644531 28.359375 28.226562 29.074219 28.226562 C 29.789062 28.226562 30.371094 27.644531 30.371094 26.929688 C 30.371094 26.285156 29.902344 25.753906 29.292969 25.648438 L 29.292969 23.820312 C 29.292969 23.699219 29.195312 23.601562 29.074219 23.601562 L 26.429688 23.601562 C 26.570312 23.300781 26.695312 22.992188 26.804688 22.671875 L 31.5 22.671875 C 31.621094 22.671875 31.71875 22.574219 31.71875 22.457031 C 31.71875 22.335938 31.621094 22.238281 31.5 22.238281 L 26.941406 22.238281 C 27.15625 21.488281 27.277344 20.703125 27.296875 19.890625 L 29.140625 19.890625 C 29.242188 20.503906 29.777344 20.96875 30.417969 20.96875 C 31.132812 20.96875 31.71875 20.386719 31.71875 19.671875 C 31.71875 18.957031 31.132812 18.375 30.417969 18.375 C 29.777344 18.375 29.242188 18.839844 29.140625 19.453125 L 27.296875 19.453125 C 27.277344 18.640625 27.15625 17.855469 26.941406 17.105469 Z M 28.210938 12.414062 C 28.210938 11.941406 28.597656 11.554688 29.074219 11.554688 C 29.546875 11.554688 29.933594 11.941406 29.933594 12.414062 C 29.933594 12.890625 29.546875 13.277344 29.074219 13.277344 C 28.597656 13.277344 28.210938 12.890625 28.210938 12.414062 Z M 20.355469 6.355469 C 20.828125 6.355469 21.214844 6.742188 21.214844 7.214844 C 21.214844 7.691406 20.828125 8.078125 20.355469 8.078125 C 19.878906 8.078125 19.492188 7.691406 19.492188 7.214844 C 19.492188 6.742188 19.878906 6.355469 20.355469 6.355469 Z M 5.992188 12.414062 C 5.992188 11.941406 6.378906 11.554688 6.855469 11.554688 C 7.328125 11.554688 7.714844 11.941406 7.714844 12.414062 C 7.714844 12.890625 7.328125 13.277344 6.855469 13.277344 C 6.378906 13.277344 5.992188 12.890625 5.992188 12.414062 Z M 5.507812 20.535156 C 5.035156 20.535156 4.648438 20.148438 4.648438 19.671875 C 4.648438 19.195312 5.035156 18.808594 5.507812 18.808594 C 5.984375 18.808594 6.371094 19.195312 6.371094 19.671875 C 6.371094 20.148438 5.984375 20.535156 5.507812 20.535156 Z M 7.714844 26.929688 C 7.714844 27.402344 7.328125 27.789062 6.855469 27.789062 C 6.378906 27.789062 5.992188 27.402344 5.992188 26.929688 C 5.992188 26.453125 6.378906 26.066406 6.855469 26.066406 C 7.328125 26.066406 7.714844 26.453125 7.714844 26.929688 Z M 15.574219 32.988281 C 15.097656 32.988281 14.710938 32.601562 14.710938 32.125 C 14.710938 31.652344 15.097656 31.265625 15.574219 31.265625 C 16.050781 31.265625 16.4375 31.652344 16.4375 32.125 C 16.4375 32.601562 16.050781 32.988281 15.574219 32.988281 Z M 29.933594 26.929688 C 29.933594 27.402344 29.546875 27.789062 29.074219 27.789062 C 28.597656 27.789062 28.210938 27.402344 28.210938 26.929688 C 28.210938 26.453125 28.597656 26.066406 29.074219 26.066406 C 29.546875 26.066406 29.933594 26.453125 29.933594 26.929688 Z M 30.417969 18.808594 C 30.894531 18.808594 31.28125 19.195312 31.28125 19.671875 C 31.28125 20.148438 30.894531 20.535156 30.417969 20.535156 C 29.945312 20.535156 29.558594 20.148438 29.558594 19.671875 C 29.558594 19.195312 29.945312 18.808594 30.417969 18.808594 Z M 17.964844 28.570312 C 13.058594 28.570312 9.066406 24.578125 9.066406 19.671875 C 9.066406 14.765625 13.058594 10.773438 17.964844 10.773438 C 22.871094 10.773438 26.863281 14.765625 26.863281 19.671875 C 26.863281 24.578125 22.871094 28.570312 17.964844 28.570312 Z M 20.539062 17.128906 L 20.539062 15.492188 C 20.539062 14.074219 19.382812 12.917969 17.964844 12.917969 C 16.542969 12.917969 15.386719 14.074219 15.386719 15.492188 L 15.386719 16.09375 C 15.386719 16.214844 15.484375 16.3125 15.605469 16.3125 L 16.652344 16.3125 C 16.710938 16.3125 16.769531 16.289062 16.808594 16.25 C 16.847656 16.207031 16.871094 16.152344 16.871094 16.09375 L 16.871094 15.550781 C 16.871094 14.949219 17.363281 14.457031 17.964844 14.457031 C 18.566406 14.457031 19.054688 14.949219 19.054688 15.550781 L 19.054688 17.128906 L 15.394531 17.128906 C 14.429688 17.128906 13.648438 17.910156 13.648438 18.871094 L 13.648438 23.589844 C 13.648438 24.550781 14.429688 25.335938 15.394531 25.335938 L 20.535156 25.335938 C 21.496094 25.335938 22.277344 24.550781 22.277344 23.589844 L 22.277344 18.871094 C 22.277344 17.914062 21.5 17.132812 20.539062 17.128906 Z M 17.964844 14.023438 C 17.121094 14.023438 16.4375 14.707031 16.4375 15.550781 L 16.4375 15.875 L 15.824219 15.875 L 15.824219 15.492188 C 15.824219 14.3125 16.785156 13.351562 17.964844 13.351562 C 19.144531 13.351562 20.105469 14.3125 20.105469 15.492188 L 20.105469 17.128906 L 19.492188 17.128906 L 19.492188 15.550781 C 19.492188 14.707031 18.804688 14.023438 17.964844 14.023438 Z M 21.84375 23.589844 C 21.84375 24.3125 21.253906 24.898438 20.535156 24.898438 L 15.394531 24.898438 C 14.671875 24.898438 14.085938 24.3125 14.085938 23.589844 L 14.085938 18.871094 C 14.085938 18.152344 14.671875 17.5625 15.394531 17.5625 L 20.535156 17.5625 C 21.253906 17.5625 21.84375 18.152344 21.84375 18.871094 Z M 17.964844 18.714844 C 17.292969 18.714844 16.746094 19.261719 16.746094 19.933594 C 16.746094 20.316406 16.921875 20.671875 17.222656 20.902344 L 17.222656 22.148438 C 17.222656 22.554688 17.554688 22.886719 17.964844 22.886719 C 18.371094 22.886719 18.703125 22.554688 18.703125 22.148438 L 18.703125 20.902344 C 19.003906 20.671875 19.183594 20.316406 19.183594 19.933594 C 19.183594 19.261719 18.636719 18.714844 17.964844 18.714844 Z M 18.371094 20.601562 C 18.308594 20.640625 18.269531 20.710938 18.269531 20.785156 L 18.269531 22.148438 C 18.269531 22.316406 18.132812 22.453125 17.964844 22.453125 C 17.796875 22.453125 17.660156 22.316406 17.660156 22.148438 L 17.660156 20.785156 C 17.660156 20.710938 17.621094 20.640625 17.554688 20.601562 C 17.320312 20.457031 17.183594 20.207031 17.183594 19.933594 C 17.183594 19.503906 17.53125 19.152344 17.964844 19.152344 C 18.394531 19.152344 18.746094 19.503906 18.746094 19.933594 C 18.746094 20.207031 18.605469 20.457031 18.371094 20.601562 Z M 18.371094 20.601562 " fill-opacity="1" fill-rule="nonzero"/></g><g fill="#007e7a" fill-opacity="1"><g transform="translate(37.058847, 22.383688)"><g><path d="M 2.714844 0 L 2.714844 -2.984375 L 5.996094 -2.984375 L 5.996094 -4.5625 L 2.714844 -4.5625 L 2.714844 -6.417969 L 6.539062 -6.417969 L 6.539062 -8.097656 L 0.828125 -8.097656 L 0.828125 0 Z M 2.714844 0 "/></g></g></g><g fill="#007e7a" fill-opacity="1"><g transform="translate(44.200282, 22.383688)"><g><path d="M 3.191406 0.203125 C 4.089844 0.203125 4.816406 -0.15625 5.191406 -0.78125 L 5.191406 0 L 6.9375 0 L 6.9375 -6.167969 L 5.199219 -6.167969 L 5.199219 -5.375 C 4.824219 -6.007812 4.089844 -6.363281 3.179688 -6.363281 C 1.554688 -6.363281 0.351562 -4.882812 0.351562 -3.085938 C 0.351562 -1.273438 1.535156 0.203125 3.191406 0.203125 Z M 3.636719 -1.488281 C 2.859375 -1.488281 2.167969 -2.035156 2.167969 -3.085938 C 2.167969 -4.078125 2.835938 -4.679688 3.644531 -4.679688 C 4.464844 -4.679688 5.121094 -3.972656 5.121094 -3.085938 C 5.121094 -2.179688 4.476562 -1.488281 3.636719 -1.488281 Z M 3.636719 -1.488281 "/></g></g></g><g fill="#007e7a" fill-opacity="1"><g transform="translate(52.109367, 22.383688)"><g><path d="M 3.578125 0.195312 C 5.269531 0.195312 6.453125 -0.910156 6.746094 -2.429688 L 4.886719 -2.429688 C 4.667969 -1.738281 4.160156 -1.488281 3.585938 -1.488281 C 2.859375 -1.488281 2.167969 -2.054688 2.167969 -3.085938 C 2.167969 -4.109375 2.851562 -4.667969 3.585938 -4.667969 C 4.160156 -4.667969 4.660156 -4.421875 4.886719 -3.839844 L 6.746094 -3.839844 C 6.429688 -5.269531 5.269531 -6.363281 3.578125 -6.363281 C 1.671875 -6.363281 0.351562 -4.871094 0.351562 -3.085938 C 0.351562 -1.285156 1.671875 0.195312 3.578125 0.195312 Z M 3.578125 0.195312 "/></g></g></g><g fill="#007e7a" fill-opacity="1"><g transform="translate(59.381718, 22.383688)"><g><path d="M 6.769531 -3.132812 C 6.769531 -4.886719 5.535156 -6.363281 3.609375 -6.363281 C 1.679688 -6.363281 0.351562 -4.882812 0.351562 -3.085938 C 0.351562 -1.285156 1.683594 0.195312 3.609375 0.195312 C 5.261719 0.195312 6.363281 -0.917969 6.636719 -2.011719 L 4.671875 -2.011719 C 4.535156 -1.65625 4.214844 -1.382812 3.574219 -1.382812 C 2.863281 -1.382812 2.332031 -1.804688 2.183594 -2.625 L 6.734375 -2.625 C 6.757812 -2.816406 6.769531 -2.933594 6.769531 -3.132812 Z M 2.257812 -3.863281 C 2.484375 -4.578125 3.046875 -4.859375 3.613281 -4.859375 C 4.273438 -4.859375 4.835938 -4.4375 4.894531 -3.863281 Z M 2.257812 -3.863281 "/></g></g></g><g fill="#007e7a" fill-opacity="1"><g transform="translate(66.701677, 22.383688)"><g/></g></g><g fill="#007e7a" fill-opacity="1"><g transform="translate(69.897752, 22.383688)"><g><path d="M 4.636719 0.183594 C 6.359375 0.183594 8.300781 -0.832031 8.644531 -3.191406 L 6.714844 -3.191406 C 6.4375 -2.007812 5.585938 -1.542969 4.585938 -1.542969 C 3.273438 -1.542969 2.195312 -2.445312 2.195312 -4.054688 C 2.195312 -5.621094 3.273438 -6.574219 4.585938 -6.574219 C 5.589844 -6.574219 6.4375 -6.101562 6.722656 -4.917969 L 8.644531 -4.917969 C 8.300781 -7.28125 6.339844 -8.300781 4.636719 -8.300781 C 2.238281 -8.300781 0.308594 -6.417969 0.308594 -4.058594 C 0.308594 -1.707031 2.238281 0.183594 4.636719 0.183594 Z M 4.636719 0.183594 "/></g></g></g><g fill="#007e7a" fill-opacity="1"><g transform="translate(79.121958, 22.383688)"><g><path d="M 2.542969 0 L 2.542969 -3.058594 C 2.542969 -4.035156 3.179688 -4.6875 3.875 -4.6875 C 4.5625 -4.6875 5.023438 -4.292969 5.023438 -3.269531 L 5.023438 0 L 6.859375 0 L 6.859375 -3.308594 C 6.859375 -5.214844 6.074219 -6.363281 4.394531 -6.363281 C 3.542969 -6.363281 2.898438 -6.03125 2.5 -5.472656 L 2.542969 -6.1875 L 2.542969 -8.390625 L 0.707031 -8.390625 L 0.707031 0 Z M 2.542969 0 "/></g></g></g><g fill="#007e7a" fill-opacity="1"><g transform="translate(86.935831, 22.383688)"><g><path d="M 6.769531 -3.132812 C 6.769531 -4.886719 5.535156 -6.363281 3.609375 -6.363281 C 1.679688 -6.363281 0.351562 -4.882812 0.351562 -3.085938 C 0.351562 -1.285156 1.683594 0.195312 3.609375 0.195312 C 5.261719 0.195312 6.363281 -0.917969 6.636719 -2.011719 L 4.671875 -2.011719 C 4.535156 -1.65625 4.214844 -1.382812 3.574219 -1.382812 C 2.863281 -1.382812 2.332031 -1.804688 2.183594 -2.625 L 6.734375 -2.625 C 6.757812 -2.816406 6.769531 -2.933594 6.769531 -3.132812 Z M 2.257812 -3.863281 C 2.484375 -4.578125 3.046875 -4.859375 3.613281 -4.859375 C 4.273438 -4.859375 4.835938 -4.4375 4.894531 -3.863281 Z M 2.257812 -3.863281 "/></g></g></g><g fill="#007e7a" fill-opacity="1"><g transform="translate(94.255787, 22.383688)"><g><path d="M 3.578125 0.195312 C 5.269531 0.195312 6.453125 -0.910156 6.746094 -2.429688 L 4.886719 -2.429688 C 4.667969 -1.738281 4.160156 -1.488281 3.585938 -1.488281 C 2.859375 -1.488281 2.167969 -2.054688 2.167969 -3.085938 C 2.167969 -4.109375 2.851562 -4.667969 3.585938 -4.667969 C 4.160156 -4.667969 4.660156 -4.421875 4.886719 -3.839844 L 6.746094 -3.839844 C 6.429688 -5.269531 5.269531 -6.363281 3.578125 -6.363281 C 1.671875 -6.363281 0.351562 -4.871094 0.351562 -3.085938 C 0.351562 -1.285156 1.671875 0.195312 3.578125 0.195312 Z M 3.578125 0.195312 "/></g></g></g><g fill="#007e7a" fill-opacity="1"><g transform="translate(101.528138, 22.383688)"><g><path d="M 6.714844 0 L 4.671875 -3.761719 L 6.5 -6.167969 L 4.273438 -6.167969 L 2.542969 -3.632812 L 2.542969 -8.390625 L 0.707031 -8.390625 L 0.707031 0 L 2.542969 0 L 2.542969 -1.695312 L 3.347656 -2.554688 L 4.667969 0 Z M 6.714844 0 "/></g></g></g></svg>