<svg xmlns="http://www.w3.org/2000/svg" xmlns:xlink="http://www.w3.org/1999/xlink" width="100" zoomAndPan="magnify" viewBox="0 0 75 74.999997" height="100" preserveAspectRatio="xMidYMid meet" version="1.0"><defs><clipPath id="2b8794d46f"><path d="M 5.464844 5.464844 L 22 5.464844 L 22 22 L 5.464844 22 Z M 5.464844 5.464844 " clip-rule="nonzero"/></clipPath><clipPath id="dfb090891d"><path d="M 53 5.464844 L 69.214844 5.464844 L 69.214844 22 L 53 22 Z M 53 5.464844 " clip-rule="nonzero"/></clipPath><clipPath id="5efb611352"><path d="M 5.464844 53 L 22 53 L 22 69.214844 L 5.464844 69.214844 Z M 5.464844 53 " clip-rule="nonzero"/></clipPath><clipPath id="6450d58849"><path d="M 53 53 L 69.214844 53 L 69.214844 69.214844 L 53 69.214844 Z M 53 53 " clip-rule="nonzero"/></clipPath><clipPath id="d1e249d71d"><path d="M 5.464844 9 L 69.214844 9 L 69.214844 63 L 5.464844 63 Z M 5.464844 9 " clip-rule="nonzero"/></clipPath></defs><g clip-path="url(#2b8794d46f)"><path fill="#ffffff" d="M 6.527344 21.402344 C 7.113281 21.402344 7.589844 20.925781 7.589844 20.339844 L 7.589844 9.714844 C 7.589844 8.546875 8.546875 7.589844 9.714844 7.589844 L 20.339844 7.589844 C 20.925781 7.589844 21.402344 7.113281 21.402344 6.527344 C 21.402344 5.945312 20.925781 5.464844 20.339844 5.464844 L 9.714844 5.464844 C 7.371094 5.464844 5.464844 7.371094 5.464844 9.714844 L 5.464844 20.339844 C 5.464844 20.925781 5.945312 21.402344 6.527344 21.402344 " fill-opacity="1" fill-rule="nonzero"/></g><g clip-path="url(#dfb090891d)"><path fill="#ffffff" d="M 64.964844 5.464844 L 54.339844 5.464844 C 53.757812 5.464844 53.277344 5.945312 53.277344 6.527344 C 53.277344 7.113281 53.757812 7.589844 54.339844 7.589844 L 64.964844 7.589844 C 66.136719 7.589844 67.089844 8.546875 67.089844 9.714844 L 67.089844 20.339844 C 67.089844 20.925781 67.570312 21.402344 68.152344 21.402344 C 68.738281 21.402344 69.214844 20.925781 69.214844 20.339844 L 69.214844 9.714844 C 69.214844 7.371094 67.3125 5.464844 64.964844 5.464844 " fill-opacity="1" fill-rule="nonzero"/></g><g clip-path="url(#5efb611352)"><path fill="#ffffff" d="M 20.339844 67.089844 L 9.714844 67.089844 C 8.546875 67.089844 7.589844 66.136719 7.589844 64.964844 L 7.589844 54.339844 C 7.589844 53.757812 7.113281 53.277344 6.527344 53.277344 C 5.945312 53.277344 5.464844 53.757812 5.464844 54.339844 L 5.464844 64.964844 C 5.464844 67.3125 7.371094 69.214844 9.714844 69.214844 L 20.339844 69.214844 C 20.925781 69.214844 21.402344 68.738281 21.402344 68.152344 C 21.402344 67.570312 20.925781 67.089844 20.339844 67.089844 " fill-opacity="1" fill-rule="nonzero"/></g><g clip-path="url(#6450d58849)"><path fill="#ffffff" d="M 68.152344 53.277344 C 67.570312 53.277344 67.089844 53.757812 67.089844 54.339844 L 67.089844 64.964844 C 67.089844 66.136719 66.136719 67.089844 64.964844 67.089844 L 54.339844 67.089844 C 53.757812 67.089844 53.277344 67.570312 53.277344 68.152344 C 53.277344 68.738281 53.757812 69.214844 54.339844 69.214844 L 64.964844 69.214844 C 67.3125 69.214844 69.214844 67.3125 69.214844 64.964844 L 69.214844 54.339844 C 69.214844 53.757812 68.738281 53.277344 68.152344 53.277344 " fill-opacity="1" fill-rule="nonzero"/></g><g clip-path="url(#d1e249d71d)"><path fill="#ffffff" d="M 50.589844 35.675781 C 50.59375 35.902344 50.558594 36.308594 50.308594 36.570312 C 50.003906 36.871094 49.4375 36.9375 49.007812 36.9375 C 48.421875 36.9375 47.945312 37.410156 47.945312 37.996094 C 47.945312 38.027344 47.929688 40.785156 47.003906 42.542969 C 46.527344 43.460938 44.820312 44.753906 42.570312 45.921875 C 42.167969 46.125 41.828125 46.394531 41.582031 46.699219 C 40.996094 47.402344 39.410156 49.027344 37.339844 49.027344 C 35.273438 49.027344 33.683594 47.402344 33.117188 46.71875 C 32.855469 46.394531 32.515625 46.125 32.125 45.929688 C 29.863281 44.753906 28.15625 43.460938 27.679688 42.546875 C 26.761719 40.785156 26.75 38.027344 26.75 37.996094 C 26.75 37.410156 26.273438 36.9375 25.6875 36.9375 C 25.253906 36.9375 24.679688 36.871094 24.375 36.5625 C 24.121094 36.304688 24.097656 35.90625 24.101562 35.675781 C 24.109375 35.179688 24.042969 34.667969 23.925781 34.152344 L 50.757812 34.152344 C 50.640625 34.671875 50.578125 35.1875 50.589844 35.675781 Z M 45.824219 50.015625 C 45.578125 50.804688 44.101562 54.339844 37.339844 54.339844 C 30.558594 54.339844 29.09375 50.785156 28.859375 50.019531 L 29.273438 46.738281 C 29.957031 47.171875 30.625 47.542969 31.160156 47.820312 C 31.285156 47.882812 31.390625 47.960938 31.46875 48.066406 C 32.25 48.996094 34.378906 51.152344 37.339844 51.152344 C 40.304688 51.152344 42.433594 48.996094 43.226562 48.046875 C 43.292969 47.960938 43.398438 47.882812 43.539062 47.8125 C 44.066406 47.539062 44.730469 47.167969 45.410156 46.738281 Z M 59.652344 57.480469 L 59.652344 60.714844 L 15.027344 60.714844 L 15.027344 57.480469 C 15.027344 56.070312 15.933594 54.847656 17.277344 54.433594 L 27.132812 51.402344 C 27.960938 53.179688 30.433594 56.464844 37.339844 56.464844 C 44.246094 56.464844 46.722656 53.179688 47.550781 51.402344 L 57.40625 54.433594 C 58.75 54.847656 59.652344 56.070312 59.652344 57.480469 Z M 22.960938 31.699219 C 22.246094 30.351562 22.414062 29.433594 22.800781 29.019531 C 22.992188 28.820312 23.246094 28.722656 23.53125 28.722656 C 23.710938 28.722656 23.902344 28.757812 24.097656 28.839844 C 24.519531 29.082031 25.066406 29 25.40625 28.625 C 25.578125 28.433594 25.671875 28.195312 25.679688 27.949219 C 25.929688 25.957031 27.058594 20.753906 29.4375 19.265625 C 30.316406 20.460938 32.511719 22.464844 37.339844 22.464844 C 42.171875 22.464844 44.367188 20.460938 45.226562 19.28125 C 47.601562 20.734375 48.730469 25.84375 48.996094 27.882812 C 48.992188 28.097656 49.050781 28.320312 49.179688 28.507812 C 49.46875 28.945312 50.039062 29.101562 50.515625 28.875 C 51.046875 28.625 51.550781 28.679688 51.875 29.015625 C 52.269531 29.425781 52.4375 30.347656 51.714844 31.722656 C 51.660156 31.832031 51.613281 31.929688 51.566406 32.027344 L 23.117188 32.027344 C 23.066406 31.921875 23.019531 31.820312 22.960938 31.699219 Z M 25.417969 16.367188 C 27.265625 13.363281 31.261719 11.839844 37.289062 11.839844 C 43.316406 11.839844 47.3125 13.363281 49.160156 16.367188 C 50.511719 18.558594 50.515625 21.222656 50.167969 23.386719 C 49.457031 21.140625 48.269531 18.652344 46.339844 17.46875 C 45.394531 16.890625 44.183594 17.121094 43.535156 18.007812 C 42.890625 18.878906 41.238281 20.339844 37.339844 20.339844 C 33.445312 20.339844 31.792969 18.878906 31.148438 18.007812 C 30.496094 17.121094 29.292969 16.890625 28.34375 17.46875 C 26.347656 18.695312 25.148438 21.308594 24.445312 23.613281 C 24.058594 21.414062 24.019531 18.632812 25.417969 16.367188 Z M 68.152344 32.027344 L 53.902344 32.027344 C 54.722656 29.996094 54.230469 28.402344 53.410156 27.546875 C 52.910156 27.023438 52.261719 26.714844 51.566406 26.628906 C 52.375 24.089844 53.355469 19.328125 51.082031 15.445312 C 48.867188 11.640625 44.226562 9.714844 37.289062 9.714844 C 30.351562 9.714844 25.707031 11.640625 23.492188 15.445312 C 21.222656 19.332031 22.210938 24.101562 23.015625 26.636719 C 22.355469 26.746094 21.738281 27.058594 21.257812 27.558594 C 20.445312 28.414062 19.957031 30.011719 20.777344 32.027344 L 6.527344 32.027344 C 5.945312 32.027344 5.464844 32.507812 5.464844 33.089844 C 5.464844 33.675781 5.945312 34.152344 6.527344 34.152344 L 21.703125 34.152344 C 21.878906 34.671875 21.984375 35.175781 21.976562 35.632812 C 21.953125 36.582031 22.257812 37.4375 22.847656 38.042969 C 23.3125 38.519531 23.921875 38.832031 24.671875 38.972656 C 24.757812 40.113281 25.019531 42.035156 25.800781 43.535156 C 26.121094 44.148438 26.675781 44.746094 27.308594 45.300781 L 26.8125 49.277344 L 16.65625 52.402344 C 14.410156 53.09375 12.902344 55.132812 12.902344 57.480469 L 12.902344 60.714844 C 12.902344 61.886719 13.859375 62.839844 15.027344 62.839844 L 59.652344 62.839844 C 60.824219 62.839844 61.777344 61.886719 61.777344 60.714844 L 61.777344 57.480469 C 61.777344 55.132812 60.273438 53.09375 58.027344 52.402344 L 47.871094 49.277344 L 47.371094 45.300781 C 48.007812 44.746094 48.558594 44.148438 48.882812 43.535156 C 49.671875 42.035156 49.9375 40.113281 50.023438 38.972656 C 50.757812 38.832031 51.363281 38.523438 51.820312 38.058594 C 52.410156 37.457031 52.726562 36.601562 52.714844 35.636719 C 52.703125 35.171875 52.808594 34.667969 52.980469 34.152344 L 68.152344 34.152344 C 68.738281 34.152344 69.214844 33.675781 69.214844 33.089844 C 69.214844 32.507812 68.738281 32.027344 68.152344 32.027344 " fill-opacity="1" fill-rule="nonzero"/></g></svg>